<mxfile host="app.diagrams.net" agent="Mozilla/5.0 (Windows NT 10.0; Win64; x64) AppleWebKit/537.36 (KHTML, like Gecko) Chrome/127.0.0.0 Safari/537.36 Edg/127.0.0.0" version="24.7.6">
  <diagram name="第 1 页" id="PCkdRjPO7_-sSv6l2gZ-">
    <mxGraphModel dx="4157" dy="939" grid="1" gridSize="10" guides="1" tooltips="1" connect="1" arrows="1" fold="1" page="1" pageScale="1" pageWidth="827" pageHeight="1169" math="0" shadow="0">
      <root>
        <mxCell id="0" />
        <mxCell id="1" parent="0" />
        <mxCell id="Qq1oJCVKSSWmtxD43wL0-228" value="" style="rounded=1;whiteSpace=wrap;html=1;" vertex="1" parent="1">
          <mxGeometry x="-2010" y="4480" width="1010" height="460" as="geometry" />
        </mxCell>
        <mxCell id="Qq1oJCVKSSWmtxD43wL0-225" value="" style="rounded=0;whiteSpace=wrap;html=1;fillColor=#f5f5f5;fontColor=#333333;strokeColor=#666666;" vertex="1" parent="1">
          <mxGeometry x="-1462.5" y="4490" width="135" height="290" as="geometry" />
        </mxCell>
        <mxCell id="oMi_tc-Ln19UIqllwzs8-1" value="&lt;span id=&quot;boardmix-data-meta&quot;&gt;&lt;/span&gt;&lt;span id=&quot;boardmix-data-buffer&quot;&gt;&lt;/span&gt;" style="text;whiteSpace=wrap;html=1;" parent="1" vertex="1">
          <mxGeometry x="140" y="3210" width="30" height="20" as="geometry" />
        </mxCell>
        <mxCell id="oMi_tc-Ln19UIqllwzs8-2" value="&lt;span id=&quot;boardmix-data-meta&quot;&gt;&lt;/span&gt;&lt;span id=&quot;boardmix-data-buffer&quot;&gt;&lt;/span&gt;" style="text;whiteSpace=wrap;html=1;" parent="1" vertex="1">
          <mxGeometry x="110" y="3030" width="30" height="20" as="geometry" />
        </mxCell>
        <mxCell id="oMi_tc-Ln19UIqllwzs8-12" style="edgeStyle=orthogonalEdgeStyle;rounded=0;orthogonalLoop=1;jettySize=auto;html=1;fontFamily=Helvetica;fontSize=12;fontColor=default;labelBorderColor=default;labelBackgroundColor=default;exitX=1;exitY=0.5;exitDx=0;exitDy=0;entryX=0;entryY=0.5;entryDx=0;entryDy=0;" parent="1" source="oMi_tc-Ln19UIqllwzs8-98" target="oMi_tc-Ln19UIqllwzs8-109" edge="1">
          <mxGeometry relative="1" as="geometry">
            <mxPoint x="280" y="3245" as="sourcePoint" />
            <mxPoint x="-40" y="3245" as="targetPoint" />
          </mxGeometry>
        </mxCell>
        <mxCell id="oMi_tc-Ln19UIqllwzs8-17" style="edgeStyle=orthogonalEdgeStyle;rounded=0;orthogonalLoop=1;jettySize=auto;html=1;exitX=0.5;exitY=1;exitDx=0;exitDy=0;fontFamily=Helvetica;fontSize=12;fontColor=default;labelBorderColor=default;labelBackgroundColor=default;" parent="1" source="oMi_tc-Ln19UIqllwzs8-15" target="oMi_tc-Ln19UIqllwzs8-16" edge="1">
          <mxGeometry relative="1" as="geometry" />
        </mxCell>
        <mxCell id="oMi_tc-Ln19UIqllwzs8-18" value="&lt;font color=&quot;#ff3333&quot;&gt;platform&lt;/font&gt;" style="edgeLabel;html=1;align=center;verticalAlign=middle;resizable=0;points=[];spacingLeft=8;fontFamily=Helvetica;fontSize=12;fontColor=default;labelBorderColor=default;labelBackgroundColor=default;fillColor=none;gradientColor=none;" parent="oMi_tc-Ln19UIqllwzs8-17" vertex="1" connectable="0">
          <mxGeometry x="-0.0724" y="-1" relative="1" as="geometry">
            <mxPoint as="offset" />
          </mxGeometry>
        </mxCell>
        <mxCell id="oMi_tc-Ln19UIqllwzs8-19" style="edgeStyle=orthogonalEdgeStyle;rounded=0;orthogonalLoop=1;jettySize=auto;html=1;exitX=1;exitY=0.5;exitDx=0;exitDy=0;fontFamily=Helvetica;fontSize=12;fontColor=default;labelBorderColor=default;labelBackgroundColor=default;entryX=0;entryY=0.5;entryDx=0;entryDy=0;" parent="1" source="oMi_tc-Ln19UIqllwzs8-15" target="oMi_tc-Ln19UIqllwzs8-20" edge="1">
          <mxGeometry relative="1" as="geometry">
            <mxPoint x="-210" y="2469.7241379310344" as="targetPoint" />
          </mxGeometry>
        </mxCell>
        <mxCell id="oMi_tc-Ln19UIqllwzs8-23" value="device" style="edgeLabel;html=1;align=center;verticalAlign=middle;resizable=0;points=[];spacingLeft=8;fontFamily=Helvetica;fontSize=12;fontColor=default;labelBorderColor=default;labelBackgroundColor=default;fillColor=none;gradientColor=none;" parent="oMi_tc-Ln19UIqllwzs8-19" vertex="1" connectable="0">
          <mxGeometry x="-0.6818" y="1" relative="1" as="geometry">
            <mxPoint as="offset" />
          </mxGeometry>
        </mxCell>
        <mxCell id="oMi_tc-Ln19UIqllwzs8-15" value="udc-dts" style="whiteSpace=wrap;html=1;align=center;verticalAlign=middle;spacingLeft=8;fontFamily=Helvetica;fontSize=24;fontColor=default;labelBorderColor=none;labelBackgroundColor=default;fillColor=none;gradientColor=none;horizontal=1;" parent="1" vertex="1">
          <mxGeometry x="-470" y="2450" width="110" height="40" as="geometry" />
        </mxCell>
        <mxCell id="oMi_tc-Ln19UIqllwzs8-21" style="edgeStyle=orthogonalEdgeStyle;rounded=0;orthogonalLoop=1;jettySize=auto;html=1;entryX=0;entryY=0.5;entryDx=0;entryDy=0;fontFamily=Helvetica;fontSize=12;fontColor=default;labelBorderColor=default;labelBackgroundColor=default;" parent="1" source="oMi_tc-Ln19UIqllwzs8-16" target="oMi_tc-Ln19UIqllwzs8-20" edge="1">
          <mxGeometry relative="1" as="geometry" />
        </mxCell>
        <mxCell id="oMi_tc-Ln19UIqllwzs8-22" value="&lt;font color=&quot;#ff3333&quot;&gt;prob&lt;/font&gt;" style="edgeLabel;html=1;align=center;verticalAlign=middle;resizable=0;points=[];spacingLeft=8;fontFamily=Helvetica;fontSize=12;fontColor=default;labelBorderColor=default;labelBackgroundColor=default;fillColor=none;gradientColor=none;" parent="oMi_tc-Ln19UIqllwzs8-21" vertex="1" connectable="0">
          <mxGeometry x="0.5879" relative="1" as="geometry">
            <mxPoint as="offset" />
          </mxGeometry>
        </mxCell>
        <mxCell id="oMi_tc-Ln19UIqllwzs8-24" value="driver" style="edgeLabel;html=1;align=center;verticalAlign=middle;resizable=0;points=[];spacingLeft=8;fontFamily=Helvetica;fontSize=12;fontColor=default;labelBorderColor=default;labelBackgroundColor=default;fillColor=none;gradientColor=none;" parent="oMi_tc-Ln19UIqllwzs8-21" vertex="1" connectable="0">
          <mxGeometry x="-0.6431" y="2" relative="1" as="geometry">
            <mxPoint as="offset" />
          </mxGeometry>
        </mxCell>
        <mxCell id="oMi_tc-Ln19UIqllwzs8-16" value="udc" style="whiteSpace=wrap;html=1;align=center;verticalAlign=middle;spacingLeft=8;fontFamily=Helvetica;fontSize=24;fontColor=default;labelBorderColor=none;labelBackgroundColor=default;fillColor=none;gradientColor=none;horizontal=1;" parent="1" vertex="1">
          <mxGeometry x="-470" y="2570" width="110" height="40" as="geometry" />
        </mxCell>
        <mxCell id="oMi_tc-Ln19UIqllwzs8-92" style="edgeStyle=orthogonalEdgeStyle;rounded=0;orthogonalLoop=1;jettySize=auto;html=1;fontFamily=Helvetica;fontSize=12;fontColor=default;labelBorderColor=default;labelBackgroundColor=default;" parent="1" source="oMi_tc-Ln19UIqllwzs8-20" target="oMi_tc-Ln19UIqllwzs8-91" edge="1">
          <mxGeometry relative="1" as="geometry" />
        </mxCell>
        <mxCell id="oMi_tc-Ln19UIqllwzs8-20" value="&lt;div&gt;&lt;div style=&quot;line-height: 19px;&quot;&gt;&lt;div style=&quot;font-size: 14px; line-height: 19px;&quot;&gt;&lt;div style=&quot;line-height: 19px;&quot;&gt;crg_udc_probe&lt;/div&gt;&lt;/div&gt;&lt;/div&gt;&lt;/div&gt;" style="whiteSpace=wrap;html=1;align=center;verticalAlign=middle;spacingLeft=8;fontFamily=Tahoma;fontSize=24;fontColor=#33001A;labelBorderColor=none;labelBackgroundColor=default;fillColor=none;gradientColor=none;horizontal=1;fontStyle=1" parent="1" vertex="1">
          <mxGeometry x="-210" y="2520" width="120" height="40" as="geometry" />
        </mxCell>
        <mxCell id="oMi_tc-Ln19UIqllwzs8-67" style="edgeStyle=orthogonalEdgeStyle;rounded=0;orthogonalLoop=1;jettySize=auto;html=1;exitX=1;exitY=1;exitDx=0;exitDy=0;entryX=0;entryY=0.5;entryDx=0;entryDy=0;fontFamily=Helvetica;fontSize=12;fontColor=default;labelBorderColor=default;labelBackgroundColor=default;" parent="1" source="oMi_tc-Ln19UIqllwzs8-25" target="oMi_tc-Ln19UIqllwzs8-16" edge="1">
          <mxGeometry relative="1" as="geometry">
            <Array as="points">
              <mxPoint x="-600" y="2780" />
              <mxPoint x="-600" y="2590" />
            </Array>
          </mxGeometry>
        </mxCell>
        <mxCell id="oMi_tc-Ln19UIqllwzs8-25" value="&lt;div style=&quot;color: #d4d4d4;background-color: #1e1e1e;font-family: Consolas, &#39;Courier New&#39;, monospace;font-weight: normal;font-size: 14px;line-height: 19px;white-space: pre;&quot;&gt;&lt;div&gt;&lt;span style=&quot;color: #569cd6;&quot;&gt;static&lt;/span&gt;&lt;span style=&quot;color: #d4d4d4;&quot;&gt; &lt;/span&gt;&lt;span style=&quot;color: #569cd6;&quot;&gt;struct&lt;/span&gt;&lt;span style=&quot;color: #d4d4d4;&quot;&gt; platform_driver crg_udc_driver = {&lt;/span&gt;&lt;/div&gt;&lt;div&gt;&lt;span style=&quot;color: #d4d4d4;&quot;&gt;&amp;nbsp; &amp;nbsp; .probe = crg_udc_probe,&lt;/span&gt;&lt;/div&gt;&lt;div&gt;&lt;span style=&quot;color: #d4d4d4;&quot;&gt;&amp;nbsp; &amp;nbsp; .remove = crg_udc_remove,&lt;/span&gt;&lt;/div&gt;&lt;div&gt;&lt;span style=&quot;color: #d4d4d4;&quot;&gt;&amp;nbsp; &amp;nbsp; .shutdown = crg_udc_shutdown,&lt;/span&gt;&lt;/div&gt;&lt;div&gt;&lt;span style=&quot;color: #d4d4d4;&quot;&gt;&amp;nbsp; &amp;nbsp; .driver &amp;nbsp; &amp;nbsp; &amp;nbsp; &amp;nbsp; = {&lt;/span&gt;&lt;/div&gt;&lt;div&gt;&lt;span style=&quot;color: #d4d4d4;&quot;&gt;&amp;nbsp; &amp;nbsp; &amp;nbsp; &amp;nbsp; .name &amp;nbsp; &amp;nbsp; &amp;nbsp; = &lt;/span&gt;&lt;span style=&quot;color: #ce9178;&quot;&gt;&quot;crg_udc&quot;&lt;/span&gt;&lt;span style=&quot;color: #d4d4d4;&quot;&gt;,&lt;/span&gt;&lt;/div&gt;&lt;div&gt;&lt;span style=&quot;color: #d4d4d4;&quot;&gt;&amp;nbsp; &amp;nbsp; &amp;nbsp; &amp;nbsp; .owner &amp;nbsp; &amp;nbsp; &amp;nbsp;= THIS_MODULE,&lt;/span&gt;&lt;/div&gt;&lt;div&gt;&lt;span style=&quot;color: #d4d4d4;&quot;&gt;&amp;nbsp; &amp;nbsp; &amp;nbsp; &amp;nbsp; .pm &amp;nbsp; &amp;nbsp; &amp;nbsp; &amp;nbsp; = &amp;amp;crg_udc_pm_ops,&lt;/span&gt;&lt;/div&gt;&lt;div&gt;&lt;span style=&quot;color: #d4d4d4;&quot;&gt;&amp;nbsp; &amp;nbsp; &amp;nbsp; &amp;nbsp; .of_match_table = &lt;/span&gt;&lt;span style=&quot;color: #c8c8c8;&quot;&gt;of_match_ptr&lt;/span&gt;&lt;span style=&quot;color: #d4d4d4;&quot;&gt;(of_crg_udc_match),&lt;/span&gt;&lt;/div&gt;&lt;div&gt;&lt;span style=&quot;color: #d4d4d4;&quot;&gt;&amp;nbsp; &amp;nbsp; },&lt;/span&gt;&lt;/div&gt;&lt;div&gt;&lt;span style=&quot;color: #d4d4d4;&quot;&gt;};&lt;/span&gt;&lt;/div&gt;&lt;br&gt;&lt;div&gt;&lt;span style=&quot;color: #569cd6;&quot;&gt;void&lt;/span&gt;&lt;span style=&quot;color: #d4d4d4;&quot;&gt; &lt;/span&gt;&lt;span style=&quot;color: #c8c8c8;&quot;&gt;crg_gadget_init&lt;/span&gt;&lt;span style=&quot;color: #d4d4d4;&quot;&gt;(&lt;/span&gt;&lt;span style=&quot;color: #569cd6;&quot;&gt;void&lt;/span&gt;&lt;span style=&quot;color: #d4d4d4;&quot;&gt;)&lt;/span&gt;&lt;/div&gt;&lt;div&gt;&lt;span style=&quot;color: #d4d4d4;&quot;&gt;{&lt;/span&gt;&lt;/div&gt;&lt;div&gt;&lt;span style=&quot;color: #d4d4d4;&quot;&gt;    // 注册为平台驱动&lt;/span&gt;&lt;/div&gt;&lt;div&gt;&lt;span style=&quot;color: #d4d4d4;&quot;&gt;&amp;nbsp; &amp;nbsp; &lt;/span&gt;&lt;span style=&quot;color: #c8c8c8;&quot;&gt;platform_driver_register&lt;/span&gt;&lt;span style=&quot;color: #d4d4d4;&quot;&gt;(&amp;amp;crg_udc_driver);&lt;/span&gt;&lt;/div&gt;&lt;div&gt;&lt;span style=&quot;color: #d4d4d4;&quot;&gt;}&lt;/span&gt;&lt;/div&gt;&lt;/div&gt;" style="text;whiteSpace=wrap;html=1;fontFamily=Helvetica;fontSize=12;fontColor=default;labelBorderColor=default;labelBackgroundColor=default;textShadow=0;" parent="1" vertex="1">
          <mxGeometry x="-1130" y="2460" width="450" height="320" as="geometry" />
        </mxCell>
        <mxCell id="oMi_tc-Ln19UIqllwzs8-165" style="edgeStyle=orthogonalEdgeStyle;rounded=0;orthogonalLoop=1;jettySize=auto;html=1;exitX=0.5;exitY=0;exitDx=0;exitDy=0;fontFamily=Helvetica;fontSize=12;fontColor=default;labelBorderColor=default;labelBackgroundColor=default;" parent="1" source="oMi_tc-Ln19UIqllwzs8-62" target="oMi_tc-Ln19UIqllwzs8-164" edge="1">
          <mxGeometry relative="1" as="geometry" />
        </mxCell>
        <mxCell id="oMi_tc-Ln19UIqllwzs8-62" value="&lt;div style=&quot;color: #d4d4d4;background-color: #1e1e1e;font-family: Consolas, &#39;Courier New&#39;, monospace;font-weight: normal;font-size: 14px;line-height: 19px;white-space: pre;&quot;&gt;&lt;div&gt;&lt;span style=&quot;color: #569cd6;&quot;&gt;static&lt;/span&gt;&lt;span style=&quot;color: #d4d4d4;&quot;&gt; &lt;/span&gt;&lt;span style=&quot;color: #569cd6;&quot;&gt;int&lt;/span&gt;&lt;span style=&quot;color: #d4d4d4;&quot;&gt; &lt;/span&gt;&lt;span style=&quot;color: #c8c8c8;&quot;&gt;crg_udc_probe&lt;/span&gt;&lt;span style=&quot;color: #d4d4d4;&quot;&gt;(&lt;/span&gt;&lt;span style=&quot;color: #569cd6;&quot;&gt;struct&lt;/span&gt;&lt;span style=&quot;color: #d4d4d4;&quot;&gt; platform_device *&lt;/span&gt;&lt;span style=&quot;color: #7f7f7f;&quot;&gt;pdev&lt;/span&gt;&lt;span style=&quot;color: #d4d4d4;&quot;&gt;)&lt;/span&gt;&lt;/div&gt;&lt;div&gt;&lt;span style=&quot;color: #d4d4d4;&quot;&gt;{&lt;/span&gt;&lt;/div&gt;&lt;div&gt;&lt;span style=&quot;color: #d4d4d4;&quot;&gt;&amp;nbsp; &amp;nbsp; &lt;/span&gt;&lt;span style=&quot;color: #c8c8c8;&quot;&gt;crg_udc&lt;/span&gt;&lt;span style=&quot;color: #d4d4d4;&quot;&gt;-&amp;gt;&lt;/span&gt;&lt;span style=&quot;color: #c8c8c8;&quot;&gt;gadget&lt;/span&gt;&lt;span style=&quot;color: #d4d4d4;&quot;&gt;.&lt;/span&gt;&lt;span style=&quot;color: #c8c8c8;&quot;&gt;ops&lt;/span&gt;&lt;span style=&quot;color: #d4d4d4;&quot;&gt; = &amp;amp;crg_gadget_ops;&lt;/span&gt;&lt;span style=&quot;color: #6a9955;&quot;&gt; &amp;nbsp;// gadget ops&lt;/span&gt;&lt;/div&gt;&lt;div&gt;&lt;span style=&quot;color: #d4d4d4;&quot;&gt;&amp;nbsp; &amp;nbsp; &lt;/span&gt;&lt;span style=&quot;color: #c8c8c8;&quot;&gt;crg_udc&lt;/span&gt;&lt;span style=&quot;color: #d4d4d4;&quot;&gt;-&amp;gt;&lt;/span&gt;&lt;span style=&quot;color: #c8c8c8;&quot;&gt;gadget&lt;/span&gt;&lt;span style=&quot;color: #d4d4d4;&quot;&gt;.&lt;/span&gt;&lt;span style=&quot;color: #c8c8c8;&quot;&gt;ep0&lt;/span&gt;&lt;span style=&quot;color: #d4d4d4;&quot;&gt; = &amp;amp;&lt;/span&gt;&lt;span style=&quot;color: #c8c8c8;&quot;&gt;crg_udc&lt;/span&gt;&lt;span style=&quot;color: #d4d4d4;&quot;&gt;-&amp;gt;&lt;/span&gt;&lt;span style=&quot;color: #c8c8c8;&quot;&gt;udc_ep&lt;/span&gt;&lt;span style=&quot;color: #d4d4d4;&quot;&gt;[&lt;/span&gt;&lt;span style=&quot;color: #b5cea8;&quot;&gt;0&lt;/span&gt;&lt;span style=&quot;color: #d4d4d4;&quot;&gt;].&lt;/span&gt;&lt;span style=&quot;color: #c8c8c8;&quot;&gt;usb_ep&lt;/span&gt;&lt;span style=&quot;color: #d4d4d4;&quot;&gt;;&lt;/span&gt;&lt;span style=&quot;color: #6a9955;&quot;&gt; &amp;nbsp; // 初始化ep0&lt;/span&gt;&lt;/div&gt;&lt;div&gt;&lt;span style=&quot;color: #d4d4d4;&quot;&gt;&amp;nbsp; &amp;nbsp; &lt;/span&gt;&lt;span style=&quot;color: #c8c8c8;&quot;&gt;INIT_LIST_HEAD&lt;/span&gt;&lt;span style=&quot;color: #d4d4d4;&quot;&gt;(&amp;amp;&lt;/span&gt;&lt;span style=&quot;color: #c8c8c8;&quot;&gt;crg_udc&lt;/span&gt;&lt;span style=&quot;color: #d4d4d4;&quot;&gt;-&amp;gt;&lt;/span&gt;&lt;span style=&quot;color: #c8c8c8;&quot;&gt;gadget&lt;/span&gt;&lt;span style=&quot;color: #d4d4d4;&quot;&gt;.&lt;/span&gt;&lt;span style=&quot;color: #c8c8c8;&quot;&gt;ep_list&lt;/span&gt;&lt;span style=&quot;color: #d4d4d4;&quot;&gt;);&lt;/span&gt;&lt;span style=&quot;color: #6a9955;&quot;&gt; &amp;nbsp; &amp;nbsp; &amp;nbsp; // 初始化ep链表&lt;/span&gt;&lt;/div&gt;&lt;br&gt;&lt;div&gt;&lt;span style=&quot;color: #6a9955;&quot;&gt;&amp;nbsp; &amp;nbsp; /* 注册 udc 到 udc_list*/&lt;/span&gt;&lt;/div&gt;&lt;div&gt;&lt;span style=&quot;color: #d4d4d4;&quot;&gt;&amp;nbsp; &amp;nbsp; &lt;/span&gt;&lt;span style=&quot;color: #c8c8c8;&quot;&gt;usb_add_gadget_udc&lt;/span&gt;&lt;span style=&quot;color: #d4d4d4;&quot;&gt;(&amp;amp;&lt;/span&gt;&lt;span style=&quot;color: #c8c8c8;&quot;&gt;pdev&lt;/span&gt;&lt;span style=&quot;color: #d4d4d4;&quot;&gt;-&amp;gt;&lt;/span&gt;&lt;span style=&quot;color: #c8c8c8;&quot;&gt;dev&lt;/span&gt;&lt;span style=&quot;color: #d4d4d4;&quot;&gt;, &amp;amp;&lt;/span&gt;&lt;span style=&quot;color: #c8c8c8;&quot;&gt;crg_udc&lt;/span&gt;&lt;span style=&quot;color: #d4d4d4;&quot;&gt;-&amp;gt;&lt;/span&gt;&lt;span style=&quot;color: #c8c8c8;&quot;&gt;gadget&lt;/span&gt;&lt;span style=&quot;color: #d4d4d4;&quot;&gt;);&lt;/span&gt;&lt;/div&gt;&lt;div&gt;&lt;span style=&quot;color: #d4d4d4;&quot;&gt;}&lt;/span&gt;&lt;/div&gt;&lt;/div&gt;" style="text;whiteSpace=wrap;html=1;fontFamily=Helvetica;fontSize=12;fontColor=default;labelBorderColor=default;labelBackgroundColor=default;" parent="1" vertex="1">
          <mxGeometry x="-470" y="2210" width="560" height="190" as="geometry" />
        </mxCell>
        <mxCell id="oMi_tc-Ln19UIqllwzs8-52" value="udc_list" style="shape=table;startSize=30;container=1;collapsible=0;childLayout=tableLayout;fixedRows=1;rowLines=0;fontStyle=0;strokeColor=default;fontSize=16;align=center;verticalAlign=middle;spacingLeft=8;fontFamily=Helvetica;fontColor=default;labelBorderColor=none;labelBackgroundColor=#CCFFFF;fillColor=none;gradientColor=none;" parent="1" vertex="1">
          <mxGeometry x="1090" y="2820" width="90" height="120" as="geometry" />
        </mxCell>
        <mxCell id="oMi_tc-Ln19UIqllwzs8-53" value="" style="shape=tableRow;horizontal=0;startSize=0;swimlaneHead=0;swimlaneBody=0;top=0;left=0;bottom=0;right=0;collapsible=0;dropTarget=0;fillColor=none;points=[[0,0.5],[1,0.5]];portConstraint=eastwest;strokeColor=inherit;fontSize=16;align=left;verticalAlign=middle;spacingLeft=8;fontFamily=Helvetica;fontColor=default;labelBorderColor=default;labelBackgroundColor=default;" parent="oMi_tc-Ln19UIqllwzs8-52" vertex="1">
          <mxGeometry y="30" width="90" height="30" as="geometry" />
        </mxCell>
        <mxCell id="oMi_tc-Ln19UIqllwzs8-54" value="" style="shape=partialRectangle;html=1;whiteSpace=wrap;connectable=0;fillColor=none;top=0;left=0;bottom=0;right=0;overflow=hidden;pointerEvents=1;strokeColor=inherit;fontSize=16;align=left;verticalAlign=middle;spacingLeft=8;fontFamily=Helvetica;fontColor=default;labelBorderColor=default;labelBackgroundColor=default;" parent="oMi_tc-Ln19UIqllwzs8-53" vertex="1">
          <mxGeometry width="20" height="30" as="geometry">
            <mxRectangle width="20" height="30" as="alternateBounds" />
          </mxGeometry>
        </mxCell>
        <mxCell id="oMi_tc-Ln19UIqllwzs8-55" value="UDC0" style="shape=partialRectangle;html=1;whiteSpace=wrap;connectable=0;fillColor=none;top=0;left=0;bottom=0;right=0;align=left;spacingLeft=6;overflow=hidden;strokeColor=inherit;fontSize=16;verticalAlign=middle;fontFamily=Helvetica;fontColor=default;labelBorderColor=default;labelBackgroundColor=#CCFFE6;" parent="oMi_tc-Ln19UIqllwzs8-53" vertex="1">
          <mxGeometry x="20" width="70" height="30" as="geometry">
            <mxRectangle width="70" height="30" as="alternateBounds" />
          </mxGeometry>
        </mxCell>
        <mxCell id="oMi_tc-Ln19UIqllwzs8-56" value="" style="shape=tableRow;horizontal=0;startSize=0;swimlaneHead=0;swimlaneBody=0;top=0;left=0;bottom=0;right=0;collapsible=0;dropTarget=0;fillColor=none;points=[[0,0.5],[1,0.5]];portConstraint=eastwest;strokeColor=inherit;fontSize=16;align=left;verticalAlign=middle;spacingLeft=8;fontFamily=Helvetica;fontColor=default;labelBorderColor=default;labelBackgroundColor=default;" parent="oMi_tc-Ln19UIqllwzs8-52" vertex="1">
          <mxGeometry y="60" width="90" height="30" as="geometry" />
        </mxCell>
        <mxCell id="oMi_tc-Ln19UIqllwzs8-57" value="" style="shape=partialRectangle;html=1;whiteSpace=wrap;connectable=0;fillColor=none;top=0;left=0;bottom=0;right=0;overflow=hidden;strokeColor=inherit;fontSize=16;align=left;verticalAlign=middle;spacingLeft=8;fontFamily=Helvetica;fontColor=default;labelBorderColor=default;labelBackgroundColor=default;" parent="oMi_tc-Ln19UIqllwzs8-56" vertex="1">
          <mxGeometry width="20" height="30" as="geometry">
            <mxRectangle width="20" height="30" as="alternateBounds" />
          </mxGeometry>
        </mxCell>
        <mxCell id="oMi_tc-Ln19UIqllwzs8-58" value="UDC1" style="shape=partialRectangle;html=1;whiteSpace=wrap;connectable=0;fillColor=none;top=0;left=0;bottom=0;right=0;align=left;spacingLeft=6;overflow=hidden;strokeColor=inherit;fontSize=16;verticalAlign=middle;fontFamily=Helvetica;fontColor=default;labelBorderColor=default;labelBackgroundColor=#ccffe6;" parent="oMi_tc-Ln19UIqllwzs8-56" vertex="1">
          <mxGeometry x="20" width="70" height="30" as="geometry">
            <mxRectangle width="70" height="30" as="alternateBounds" />
          </mxGeometry>
        </mxCell>
        <mxCell id="oMi_tc-Ln19UIqllwzs8-59" value="" style="shape=tableRow;horizontal=0;startSize=0;swimlaneHead=0;swimlaneBody=0;top=0;left=0;bottom=0;right=0;collapsible=0;dropTarget=0;fillColor=none;points=[[0,0.5],[1,0.5]];portConstraint=eastwest;strokeColor=inherit;fontSize=16;align=left;verticalAlign=middle;spacingLeft=8;fontFamily=Helvetica;fontColor=default;labelBorderColor=default;labelBackgroundColor=default;" parent="oMi_tc-Ln19UIqllwzs8-52" vertex="1">
          <mxGeometry y="90" width="90" height="30" as="geometry" />
        </mxCell>
        <mxCell id="oMi_tc-Ln19UIqllwzs8-60" value="" style="shape=partialRectangle;html=1;whiteSpace=wrap;connectable=0;fillColor=none;top=0;left=0;bottom=0;right=0;overflow=hidden;strokeColor=inherit;fontSize=16;align=left;verticalAlign=middle;spacingLeft=8;fontFamily=Helvetica;fontColor=default;labelBorderColor=default;labelBackgroundColor=default;" parent="oMi_tc-Ln19UIqllwzs8-59" vertex="1">
          <mxGeometry width="20" height="30" as="geometry">
            <mxRectangle width="20" height="30" as="alternateBounds" />
          </mxGeometry>
        </mxCell>
        <mxCell id="oMi_tc-Ln19UIqllwzs8-61" value="UDC..." style="shape=partialRectangle;html=1;whiteSpace=wrap;connectable=0;fillColor=none;top=0;left=0;bottom=0;right=0;align=left;spacingLeft=6;overflow=hidden;strokeColor=inherit;fontSize=16;verticalAlign=middle;fontFamily=Helvetica;fontColor=default;labelBorderColor=default;labelBackgroundColor=#ccffe6;" parent="oMi_tc-Ln19UIqllwzs8-59" vertex="1">
          <mxGeometry x="20" width="70" height="30" as="geometry">
            <mxRectangle width="70" height="30" as="alternateBounds" />
          </mxGeometry>
        </mxCell>
        <mxCell id="oMi_tc-Ln19UIqllwzs8-69" value="" style="curved=1;endArrow=classic;html=1;rounded=0;fontFamily=Helvetica;fontSize=12;fontColor=default;labelBorderColor=default;labelBackgroundColor=default;exitX=1;exitY=0.25;exitDx=0;exitDy=0;entryX=0;entryY=0.5;entryDx=0;entryDy=0;dashed=1;dashPattern=12 12;" parent="1" source="oMi_tc-Ln19UIqllwzs8-25" target="oMi_tc-Ln19UIqllwzs8-62" edge="1">
          <mxGeometry width="50" height="50" relative="1" as="geometry">
            <mxPoint x="-690" y="2320" as="sourcePoint" />
            <mxPoint x="-640" y="2270" as="targetPoint" />
            <Array as="points">
              <mxPoint x="-640" y="2320" />
              <mxPoint x="-580" y="2290" />
            </Array>
          </mxGeometry>
        </mxCell>
        <mxCell id="oMi_tc-Ln19UIqllwzs8-70" value="" style="shape=doubleArrow;direction=south;whiteSpace=wrap;html=1;align=left;verticalAlign=middle;spacingLeft=8;fontFamily=Helvetica;fontSize=12;fontColor=default;labelBorderColor=default;labelBackgroundColor=default;fillColor=none;gradientColor=none;arrowWidth=0.11110885054977568;arrowSize=0.3088887532552087;" parent="1" vertex="1">
          <mxGeometry x="-155" y="2390" width="10" height="130" as="geometry" />
        </mxCell>
        <mxCell id="oMi_tc-Ln19UIqllwzs8-82" value="" style="html=1;shadow=0;dashed=0;align=center;verticalAlign=middle;shape=mxgraph.arrows2.bendDoubleArrow;dy=15;dx=38;arrowHead=54.37;rounded=0;spacingLeft=8;fontFamily=Helvetica;fontSize=12;fontColor=default;labelBorderColor=default;labelBackgroundColor=default;fillColor=none;gradientColor=none;rotation=-90;" parent="1" vertex="1">
          <mxGeometry x="3960" y="-6.56" width="165.63" height="178.75" as="geometry" />
        </mxCell>
        <mxCell id="oMi_tc-Ln19UIqllwzs8-83" value="" style="html=1;shadow=0;dashed=0;align=center;verticalAlign=middle;shape=mxgraph.arrows2.bendDoubleArrow;dy=15;dx=38;arrowHead=54.37;rounded=0;spacingLeft=8;fontFamily=Helvetica;fontSize=12;fontColor=default;labelBorderColor=default;labelBackgroundColor=default;fillColor=none;gradientColor=none;rotation=90;" parent="1" vertex="1">
          <mxGeometry x="-2470" y="5660" width="165.63" height="178.75" as="geometry" />
        </mxCell>
        <mxCell id="oMi_tc-Ln19UIqllwzs8-87" style="edgeStyle=orthogonalEdgeStyle;rounded=0;orthogonalLoop=1;jettySize=auto;html=1;exitX=1;exitY=0.75;exitDx=0;exitDy=0;fontFamily=Helvetica;fontSize=12;fontColor=default;labelBorderColor=default;labelBackgroundColor=default;entryX=0.5;entryY=0;entryDx=0;entryDy=0;" parent="1" source="oMi_tc-Ln19UIqllwzs8-84" target="oMi_tc-Ln19UIqllwzs8-52" edge="1">
          <mxGeometry relative="1" as="geometry">
            <mxPoint x="1025" y="2020" as="targetPoint" />
          </mxGeometry>
        </mxCell>
        <mxCell id="oMi_tc-Ln19UIqllwzs8-88" value="list_add" style="edgeLabel;html=1;align=center;verticalAlign=middle;resizable=0;points=[];spacingLeft=8;fontFamily=Helvetica;fontSize=18;fontColor=#FF0000;labelBorderColor=none;labelBackgroundColor=default;fillColor=none;gradientColor=none;" parent="oMi_tc-Ln19UIqllwzs8-87" vertex="1" connectable="0">
          <mxGeometry x="-0.1242" y="-3" relative="1" as="geometry">
            <mxPoint x="-42" y="-8" as="offset" />
          </mxGeometry>
        </mxCell>
        <mxCell id="oMi_tc-Ln19UIqllwzs8-84" value="&lt;div style=&quot;color: #d4d4d4;background-color: #1e1e1e;font-family: Consolas, &#39;Courier New&#39;, monospace;font-weight: normal;font-size: 14px;line-height: 19px;white-space: pre;&quot;&gt;&lt;div&gt;&lt;span style=&quot;color: #569cd6;&quot;&gt;int&lt;/span&gt;&lt;span style=&quot;color: #d4d4d4;&quot;&gt; &lt;/span&gt;&lt;span style=&quot;color: #c8c8c8;&quot;&gt;usb_add_gadget_udc_release&lt;/span&gt;&lt;span style=&quot;color: #d4d4d4;&quot;&gt;(&lt;/span&gt;&lt;span style=&quot;color: #569cd6;&quot;&gt;struct&lt;/span&gt;&lt;span style=&quot;color: #d4d4d4;&quot;&gt; device *&lt;/span&gt;&lt;span style=&quot;color: #7f7f7f;&quot;&gt;parent&lt;/span&gt;&lt;span style=&quot;color: #d4d4d4;&quot;&gt;, &lt;/span&gt;&lt;span style=&quot;color: #569cd6;&quot;&gt;struct&lt;/span&gt;&lt;span style=&quot;color: #d4d4d4;&quot;&gt; usb_gadget *&lt;/span&gt;&lt;span style=&quot;color: #7f7f7f;&quot;&gt;gadget&lt;/span&gt;&lt;span style=&quot;color: #d4d4d4;&quot;&gt;,&lt;/span&gt;&lt;/div&gt;&lt;div&gt;&lt;span style=&quot;color: #d4d4d4;&quot;&gt;&amp;nbsp; &amp;nbsp; &amp;nbsp; &amp;nbsp; &lt;/span&gt;&lt;span style=&quot;color: #569cd6;&quot;&gt;void&lt;/span&gt;&lt;span style=&quot;color: #d4d4d4;&quot;&gt; (*release)(&lt;/span&gt;&lt;span style=&quot;color: #569cd6;&quot;&gt;struct&lt;/span&gt;&lt;span style=&quot;color: #d4d4d4;&quot;&gt; device *dev))&lt;/span&gt;&lt;/div&gt;&lt;div&gt;&lt;span style=&quot;color: #d4d4d4;&quot;&gt;{&lt;/span&gt;&lt;/div&gt;&lt;div&gt;&lt;span style=&quot;color: #d4d4d4;&quot;&gt;&amp;nbsp; &amp;nbsp; &lt;/span&gt;&lt;span style=&quot;color: #569cd6;&quot;&gt;struct&lt;/span&gt;&lt;span style=&quot;color: #d4d4d4;&quot;&gt; usb_udc &amp;nbsp; &amp;nbsp; &amp;nbsp;*udc;&lt;/span&gt;&lt;/div&gt;&lt;br&gt;&lt;div&gt;&lt;span style=&quot;color: #d4d4d4;&quot;&gt;&amp;nbsp; &amp;nbsp; &lt;/span&gt;&lt;span style=&quot;color: #c8c8c8;&quot;&gt;dev_set_name&lt;/span&gt;&lt;span style=&quot;color: #d4d4d4;&quot;&gt;(&amp;amp;&lt;/span&gt;&lt;span style=&quot;color: #c8c8c8;&quot;&gt;gadget&lt;/span&gt;&lt;span style=&quot;color: #d4d4d4;&quot;&gt;-&amp;gt;&lt;/span&gt;&lt;span style=&quot;color: #c8c8c8;&quot;&gt;dev&lt;/span&gt;&lt;span style=&quot;color: #d4d4d4;&quot;&gt;, &lt;/span&gt;&lt;span style=&quot;color: #ce9178;&quot;&gt;&quot;gadget&quot;&lt;/span&gt;&lt;span style=&quot;color: #d4d4d4;&quot;&gt;);&lt;/span&gt;&lt;/div&gt;&lt;div&gt;&lt;span style=&quot;color: #d4d4d4;&quot;&gt;&amp;nbsp; &amp;nbsp; &lt;/span&gt;&lt;span style=&quot;color: #c8c8c8;&quot;&gt;INIT_WORK&lt;/span&gt;&lt;span style=&quot;color: #d4d4d4;&quot;&gt;(&amp;amp;&lt;/span&gt;&lt;span style=&quot;color: #c8c8c8;&quot;&gt;gadget&lt;/span&gt;&lt;span style=&quot;color: #d4d4d4;&quot;&gt;-&amp;gt;&lt;/span&gt;&lt;span style=&quot;color: #c8c8c8;&quot;&gt;work&lt;/span&gt;&lt;span style=&quot;color: #d4d4d4;&quot;&gt;, usb_gadget_state_work);&lt;/span&gt;&lt;/div&gt;&lt;div&gt;&lt;span style=&quot;color: #d4d4d4;&quot;&gt;&amp;nbsp; &amp;nbsp; &lt;/span&gt;&lt;span style=&quot;color: #c8c8c8;&quot;&gt;gadget&lt;/span&gt;&lt;span style=&quot;color: #d4d4d4;&quot;&gt;-&amp;gt;&lt;/span&gt;&lt;span style=&quot;color: #c8c8c8;&quot;&gt;dev&lt;/span&gt;&lt;span style=&quot;color: #d4d4d4;&quot;&gt;.&lt;/span&gt;&lt;span style=&quot;color: #c8c8c8;&quot;&gt;parent&lt;/span&gt;&lt;span style=&quot;color: #d4d4d4;&quot;&gt; = parent;&lt;/span&gt;&lt;/div&gt;&lt;br&gt;&lt;div&gt;&lt;span style=&quot;color: #d4d4d4;&quot;&gt;&amp;nbsp; &amp;nbsp; &lt;/span&gt;&lt;span style=&quot;color: #569cd6;&quot;&gt;if&lt;/span&gt;&lt;span style=&quot;color: #d4d4d4;&quot;&gt; (release)&lt;/span&gt;&lt;span style=&quot;color: #6a9955;&quot;&gt; // 设置release函数&lt;/span&gt;&lt;/div&gt;&lt;div&gt;&lt;span style=&quot;color: #d4d4d4;&quot;&gt;&amp;nbsp; &amp;nbsp; &amp;nbsp; &amp;nbsp; &lt;/span&gt;&lt;span style=&quot;color: #c8c8c8;&quot;&gt;gadget&lt;/span&gt;&lt;span style=&quot;color: #d4d4d4;&quot;&gt;-&amp;gt;&lt;/span&gt;&lt;span style=&quot;color: #c8c8c8;&quot;&gt;dev&lt;/span&gt;&lt;span style=&quot;color: #d4d4d4;&quot;&gt;.&lt;/span&gt;&lt;span style=&quot;color: #c8c8c8;&quot;&gt;release&lt;/span&gt;&lt;span style=&quot;color: #d4d4d4;&quot;&gt; = release;&lt;/span&gt;&lt;/div&gt;&lt;div&gt;&lt;span style=&quot;color: #d4d4d4;&quot;&gt;&amp;nbsp; &amp;nbsp; &lt;/span&gt;&lt;span style=&quot;color: #569cd6;&quot;&gt;else&lt;/span&gt;&lt;/div&gt;&lt;div&gt;&lt;span style=&quot;color: #d4d4d4;&quot;&gt;&amp;nbsp; &amp;nbsp; &amp;nbsp; &amp;nbsp; &lt;/span&gt;&lt;span style=&quot;color: #c8c8c8;&quot;&gt;gadget&lt;/span&gt;&lt;span style=&quot;color: #d4d4d4;&quot;&gt;-&amp;gt;&lt;/span&gt;&lt;span style=&quot;color: #c8c8c8;&quot;&gt;dev&lt;/span&gt;&lt;span style=&quot;color: #d4d4d4;&quot;&gt;.&lt;/span&gt;&lt;span style=&quot;color: #c8c8c8;&quot;&gt;release&lt;/span&gt;&lt;span style=&quot;color: #d4d4d4;&quot;&gt; = usb_udc_nop_release;&lt;/span&gt;&lt;/div&gt;&lt;br&gt;&lt;div&gt;&lt;span style=&quot;color: #d4d4d4;&quot;&gt;&amp;nbsp; &amp;nbsp; &lt;/span&gt;&lt;span style=&quot;color: #6a9955;&quot;&gt;// 申请udc &amp;amp;&amp;amp; 初始化&lt;/span&gt;&lt;/div&gt;&lt;div&gt;&lt;span style=&quot;color: #d4d4d4;&quot;&gt;&amp;nbsp; &amp;nbsp; udc = &lt;/span&gt;&lt;span style=&quot;color: #c8c8c8;&quot;&gt;kzalloc&lt;/span&gt;&lt;span style=&quot;color: #d4d4d4;&quot;&gt;(&lt;/span&gt;&lt;span style=&quot;color: #569cd6;&quot;&gt;sizeof&lt;/span&gt;&lt;span style=&quot;color: #d4d4d4;&quot;&gt;(*udc), GFP_KERNEL);&lt;/span&gt;&lt;/div&gt;&lt;div&gt;&lt;span style=&quot;color: #d4d4d4;&quot;&gt;&amp;nbsp; &amp;nbsp; &lt;/span&gt;&lt;span style=&quot;color: #c8c8c8;&quot;&gt;device_initialize&lt;/span&gt;&lt;span style=&quot;color: #d4d4d4;&quot;&gt;(&amp;amp;&lt;/span&gt;&lt;span style=&quot;color: #c8c8c8;&quot;&gt;udc&lt;/span&gt;&lt;span style=&quot;color: #d4d4d4;&quot;&gt;-&amp;gt;&lt;/span&gt;&lt;span style=&quot;color: #c8c8c8;&quot;&gt;dev&lt;/span&gt;&lt;span style=&quot;color: #d4d4d4;&quot;&gt;);&lt;/span&gt;&lt;/div&gt;&lt;div&gt;&lt;span style=&quot;color: #d4d4d4;&quot;&gt;&amp;nbsp; &amp;nbsp; &lt;/span&gt;&lt;span style=&quot;color: #c8c8c8;&quot;&gt;udc&lt;/span&gt;&lt;span style=&quot;color: #d4d4d4;&quot;&gt;-&amp;gt;&lt;/span&gt;&lt;span style=&quot;color: #c8c8c8;&quot;&gt;dev&lt;/span&gt;&lt;span style=&quot;color: #d4d4d4;&quot;&gt;.&lt;/span&gt;&lt;span style=&quot;color: #c8c8c8;&quot;&gt;release&lt;/span&gt;&lt;span style=&quot;color: #d4d4d4;&quot;&gt; = usb_udc_release;&lt;/span&gt;&lt;/div&gt;&lt;div&gt;&lt;span style=&quot;color: #d4d4d4;&quot;&gt;&amp;nbsp; &amp;nbsp; &lt;/span&gt;&lt;span style=&quot;color: #c8c8c8;&quot;&gt;udc&lt;/span&gt;&lt;span style=&quot;color: #d4d4d4;&quot;&gt;-&amp;gt;&lt;/span&gt;&lt;span style=&quot;color: #c8c8c8;&quot;&gt;dev&lt;/span&gt;&lt;span style=&quot;color: #d4d4d4;&quot;&gt;.&lt;/span&gt;&lt;span style=&quot;color: #c8c8c8;&quot;&gt;class&lt;/span&gt;&lt;span style=&quot;color: #d4d4d4;&quot;&gt; = udc_class;&lt;/span&gt;&lt;/div&gt;&lt;div&gt;&lt;span style=&quot;color: #d4d4d4;&quot;&gt;&amp;nbsp; &amp;nbsp; &lt;/span&gt;&lt;span style=&quot;color: #c8c8c8;&quot;&gt;udc&lt;/span&gt;&lt;span style=&quot;color: #d4d4d4;&quot;&gt;-&amp;gt;&lt;/span&gt;&lt;span style=&quot;color: #c8c8c8;&quot;&gt;dev&lt;/span&gt;&lt;span style=&quot;color: #d4d4d4;&quot;&gt;.&lt;/span&gt;&lt;span style=&quot;color: #c8c8c8;&quot;&gt;groups&lt;/span&gt;&lt;span style=&quot;color: #d4d4d4;&quot;&gt; = usb_udc_attr_groups;&lt;/span&gt;&lt;/div&gt;&lt;div&gt;&lt;span style=&quot;color: #d4d4d4;&quot;&gt;&amp;nbsp; &amp;nbsp; &lt;/span&gt;&lt;span style=&quot;color: #c8c8c8;&quot;&gt;udc&lt;/span&gt;&lt;span style=&quot;color: #d4d4d4;&quot;&gt;-&amp;gt;&lt;/span&gt;&lt;span style=&quot;color: #c8c8c8;&quot;&gt;dev&lt;/span&gt;&lt;span style=&quot;color: #d4d4d4;&quot;&gt;.&lt;/span&gt;&lt;span style=&quot;color: #c8c8c8;&quot;&gt;parent&lt;/span&gt;&lt;span style=&quot;color: #d4d4d4;&quot;&gt; = parent;&lt;/span&gt;&lt;/div&gt;&lt;div&gt;&lt;span style=&quot;color: #d4d4d4;&quot;&gt;&amp;nbsp; &amp;nbsp; ret = &lt;/span&gt;&lt;span style=&quot;color: #c8c8c8;&quot;&gt;dev_set_name&lt;/span&gt;&lt;span style=&quot;color: #d4d4d4;&quot;&gt;(&amp;amp;&lt;/span&gt;&lt;span style=&quot;color: #c8c8c8;&quot;&gt;udc&lt;/span&gt;&lt;span style=&quot;color: #d4d4d4;&quot;&gt;-&amp;gt;&lt;/span&gt;&lt;span style=&quot;color: #c8c8c8;&quot;&gt;dev&lt;/span&gt;&lt;span style=&quot;color: #d4d4d4;&quot;&gt;, &lt;/span&gt;&lt;span style=&quot;color: #ce9178;&quot;&gt;&quot;%s&quot;&lt;/span&gt;&lt;span style=&quot;color: #d4d4d4;&quot;&gt;, &lt;/span&gt;&lt;span style=&quot;color: #c8c8c8;&quot;&gt;kobject_name&lt;/span&gt;&lt;span style=&quot;color: #d4d4d4;&quot;&gt;(&amp;amp;&lt;/span&gt;&lt;span style=&quot;color: #c8c8c8;&quot;&gt;parent&lt;/span&gt;&lt;span style=&quot;color: #d4d4d4;&quot;&gt;-&amp;gt;&lt;/span&gt;&lt;span style=&quot;color: #c8c8c8;&quot;&gt;kobj&lt;/span&gt;&lt;span style=&quot;color: #d4d4d4;&quot;&gt;));&lt;/span&gt;&lt;/div&gt;&lt;br&gt;&lt;div&gt;&lt;span style=&quot;color: #d4d4d4;&quot;&gt;&amp;nbsp; &amp;nbsp; &lt;/span&gt;&lt;span style=&quot;color: #6a9955;&quot;&gt;// 相互指向&lt;/span&gt;&lt;/div&gt;&lt;div&gt;&lt;span style=&quot;color: #d4d4d4;&quot;&gt;&amp;nbsp; &amp;nbsp; &lt;/span&gt;&lt;span style=&quot;color: #c8c8c8;&quot;&gt;udc&lt;/span&gt;&lt;span style=&quot;color: #d4d4d4;&quot;&gt;-&amp;gt;&lt;/span&gt;&lt;span style=&quot;color: #c8c8c8;&quot;&gt;gadget&lt;/span&gt;&lt;span style=&quot;color: #d4d4d4;&quot;&gt; = gadget;&lt;/span&gt;&lt;/div&gt;&lt;div&gt;&lt;span style=&quot;color: #d4d4d4;&quot;&gt;&amp;nbsp; &amp;nbsp; &lt;/span&gt;&lt;span style=&quot;color: #c8c8c8;&quot;&gt;gadget&lt;/span&gt;&lt;span style=&quot;color: #d4d4d4;&quot;&gt;-&amp;gt;&lt;/span&gt;&lt;span style=&quot;color: #c8c8c8;&quot;&gt;udc&lt;/span&gt;&lt;span style=&quot;color: #d4d4d4;&quot;&gt; = udc;&lt;/span&gt;&lt;/div&gt;&lt;br&gt;&lt;div&gt;&lt;span style=&quot;color: #d4d4d4;&quot;&gt;&amp;nbsp; &amp;nbsp; &lt;/span&gt;&lt;span style=&quot;color: #6a9955;&quot;&gt;// 将udc 添加到 udc_list&lt;/span&gt;&lt;/div&gt;&lt;div&gt;&lt;span style=&quot;color: #d4d4d4;&quot;&gt;&amp;nbsp; &amp;nbsp; &lt;/span&gt;&lt;span style=&quot;color: #c8c8c8;&quot;&gt;list_add_tail&lt;/span&gt;&lt;span style=&quot;color: #d4d4d4;&quot;&gt;(&amp;amp;&lt;/span&gt;&lt;span style=&quot;color: #c8c8c8;&quot;&gt;udc&lt;/span&gt;&lt;span style=&quot;color: #d4d4d4;&quot;&gt;-&amp;gt;&lt;/span&gt;&lt;span style=&quot;color: #c8c8c8;&quot;&gt;list&lt;/span&gt;&lt;span style=&quot;color: #d4d4d4;&quot;&gt;, &amp;amp;udc_list);&lt;/span&gt;&lt;/div&gt;&lt;div&gt;&lt;span style=&quot;color: #d4d4d4;&quot;&gt;&amp;nbsp; &amp;nbsp; &lt;/span&gt;&lt;span style=&quot;color: #c8c8c8;&quot;&gt;usb_gadget_set_state&lt;/span&gt;&lt;span style=&quot;color: #d4d4d4;&quot;&gt;(gadget, USB_STATE_NOTATTACHED);&lt;/span&gt;&lt;/div&gt;&lt;div&gt;&lt;span style=&quot;color: #d4d4d4;&quot;&gt;&amp;nbsp; &amp;nbsp; &lt;/span&gt;&lt;span style=&quot;color: #c8c8c8;&quot;&gt;udc&lt;/span&gt;&lt;span style=&quot;color: #d4d4d4;&quot;&gt;-&amp;gt;&lt;/span&gt;&lt;span style=&quot;color: #c8c8c8;&quot;&gt;vbus&lt;/span&gt;&lt;span style=&quot;color: #d4d4d4;&quot;&gt; = &lt;/span&gt;&lt;span style=&quot;color: #569cd6;&quot;&gt;true&lt;/span&gt;&lt;span style=&quot;color: #d4d4d4;&quot;&gt;;&lt;/span&gt;&lt;/div&gt;&lt;div&gt;&lt;span style=&quot;color: #d4d4d4;&quot;&gt;}&lt;/span&gt;&lt;/div&gt;&lt;/div&gt;" style="text;whiteSpace=wrap;html=1;fontFamily=Helvetica;fontSize=12;fontColor=default;labelBorderColor=default;labelBackgroundColor=default;" parent="1" vertex="1">
          <mxGeometry x="200" y="2230" width="620" height="620" as="geometry" />
        </mxCell>
        <mxCell id="oMi_tc-Ln19UIqllwzs8-95" style="edgeStyle=orthogonalEdgeStyle;rounded=0;orthogonalLoop=1;jettySize=auto;html=1;exitX=0.5;exitY=1;exitDx=0;exitDy=0;fontFamily=Helvetica;fontSize=12;fontColor=default;labelBorderColor=default;labelBackgroundColor=default;" parent="1" source="oMi_tc-Ln19UIqllwzs8-91" target="oMi_tc-Ln19UIqllwzs8-94" edge="1">
          <mxGeometry relative="1" as="geometry" />
        </mxCell>
        <mxCell id="oMi_tc-Ln19UIqllwzs8-91" value="&lt;div&gt;&lt;div style=&quot;line-height: 19px;&quot;&gt;&lt;div style=&quot;font-size: 14px; line-height: 19px;&quot;&gt;&lt;div style=&quot;line-height: 19px;&quot;&gt;usb_add_gadget_udc&lt;/div&gt;&lt;/div&gt;&lt;/div&gt;&lt;/div&gt;" style="whiteSpace=wrap;html=1;align=center;verticalAlign=middle;spacingLeft=8;fontFamily=Tahoma;fontSize=24;fontColor=#33001A;labelBorderColor=none;labelBackgroundColor=default;fillColor=none;gradientColor=none;horizontal=1;fontStyle=1" parent="1" vertex="1">
          <mxGeometry x="-235" y="2610" width="170" height="40" as="geometry" />
        </mxCell>
        <mxCell id="oMi_tc-Ln19UIqllwzs8-96" style="edgeStyle=orthogonalEdgeStyle;rounded=0;orthogonalLoop=1;jettySize=auto;html=1;fontFamily=Helvetica;fontSize=12;fontColor=default;labelBorderColor=default;labelBackgroundColor=default;" parent="1" source="oMi_tc-Ln19UIqllwzs8-94" target="oMi_tc-Ln19UIqllwzs8-84" edge="1">
          <mxGeometry relative="1" as="geometry" />
        </mxCell>
        <mxCell id="oMi_tc-Ln19UIqllwzs8-94" value="&lt;div&gt;&lt;div style=&quot;line-height: 19px;&quot;&gt;&lt;div style=&quot;font-size: 14px; line-height: 19px;&quot;&gt;&lt;div style=&quot;line-height: 19px;&quot;&gt;usb_add_gadget_udc_release&lt;/div&gt;&lt;/div&gt;&lt;/div&gt;&lt;/div&gt;" style="whiteSpace=wrap;html=1;align=center;verticalAlign=middle;spacingLeft=8;fontFamily=Tahoma;fontSize=24;fontColor=#33001A;labelBorderColor=none;labelBackgroundColor=default;fillColor=none;gradientColor=none;horizontal=1;fontStyle=1" parent="1" vertex="1">
          <mxGeometry x="-276" y="2700" width="252" height="40" as="geometry" />
        </mxCell>
        <mxCell id="oMi_tc-Ln19UIqllwzs8-98" value="&lt;div style=&quot;color: #d4d4d4;background-color: #1e1e1e;font-family: Consolas, &#39;Courier New&#39;, monospace;font-weight: normal;font-size: 14px;line-height: 19px;white-space: pre;&quot;&gt;&lt;div&gt;&lt;span style=&quot;color: #569cd6;&quot;&gt;int&lt;/span&gt;&lt;span style=&quot;color: #d4d4d4;&quot;&gt; &lt;/span&gt;&lt;span style=&quot;color: #c8c8c8;&quot;&gt;usb_composite_probe&lt;/span&gt;&lt;span style=&quot;color: #d4d4d4;&quot;&gt;(&lt;/span&gt;&lt;span style=&quot;color: #569cd6;&quot;&gt;struct&lt;/span&gt;&lt;span style=&quot;color: #d4d4d4;&quot;&gt; usb_composite_driver *&lt;/span&gt;&lt;span style=&quot;color: #7f7f7f;&quot;&gt;driver&lt;/span&gt;&lt;span style=&quot;color: #d4d4d4;&quot;&gt;) &lt;/span&gt;&lt;/div&gt;&lt;div&gt;&lt;span style=&quot;color: #d4d4d4;&quot;&gt;&amp;nbsp; -&amp;gt; &lt;/span&gt;&lt;span style=&quot;color: #569cd6;&quot;&gt;return&lt;/span&gt;&lt;span style=&quot;color: #d4d4d4;&quot;&gt; &lt;/span&gt;&lt;span style=&quot;color: #c8c8c8;&quot;&gt;usb_gadget_probe_driver&lt;/span&gt;&lt;span style=&quot;color: #d4d4d4;&quot;&gt;(gadget_driver);&lt;/span&gt;&lt;/div&gt;&lt;/div&gt;" style="text;whiteSpace=wrap;html=1;fontFamily=Helvetica;fontSize=12;fontColor=default;labelBorderColor=default;labelBackgroundColor=default;" parent="1" vertex="1">
          <mxGeometry x="-550" y="3320" width="475" height="52.5" as="geometry" />
        </mxCell>
        <mxCell id="oMi_tc-Ln19UIqllwzs8-106" style="edgeStyle=orthogonalEdgeStyle;rounded=0;orthogonalLoop=1;jettySize=auto;html=1;entryX=0;entryY=0.5;entryDx=0;entryDy=0;fontFamily=Helvetica;fontSize=12;fontColor=default;labelBorderColor=default;labelBackgroundColor=default;" parent="1" source="oMi_tc-Ln19UIqllwzs8-100" target="oMi_tc-Ln19UIqllwzs8-101" edge="1">
          <mxGeometry relative="1" as="geometry">
            <Array as="points">
              <mxPoint x="-1460" y="3400" />
              <mxPoint x="-1420" y="3400" />
              <mxPoint x="-1420" y="3485" />
            </Array>
          </mxGeometry>
        </mxCell>
        <mxCell id="oMi_tc-Ln19UIqllwzs8-107" style="edgeStyle=orthogonalEdgeStyle;rounded=0;orthogonalLoop=1;jettySize=auto;html=1;exitX=1;exitY=0.5;exitDx=0;exitDy=0;entryX=0;entryY=0.5;entryDx=0;entryDy=0;fontFamily=Helvetica;fontSize=12;fontColor=default;labelBorderColor=default;labelBackgroundColor=default;" parent="1" source="oMi_tc-Ln19UIqllwzs8-100" target="oMi_tc-Ln19UIqllwzs8-102" edge="1">
          <mxGeometry relative="1" as="geometry">
            <Array as="points">
              <mxPoint x="-1420" y="3400" />
              <mxPoint x="-1420" y="3620" />
            </Array>
          </mxGeometry>
        </mxCell>
        <mxCell id="oMi_tc-Ln19UIqllwzs8-100" value="添加function" style="whiteSpace=wrap;html=1;align=center;verticalAlign=middle;spacingLeft=8;fontFamily=Helvetica;fontSize=24;fontColor=default;labelBorderColor=none;labelBackgroundColor=default;fillColor=none;gradientColor=none;horizontal=1;" parent="1" vertex="1">
          <mxGeometry x="-1670" y="3380" width="200" height="40" as="geometry" />
        </mxCell>
        <mxCell id="oMi_tc-Ln19UIqllwzs8-104" style="edgeStyle=orthogonalEdgeStyle;rounded=0;orthogonalLoop=1;jettySize=auto;html=1;entryX=0;entryY=0.5;entryDx=0;entryDy=0;fontFamily=Helvetica;fontSize=12;fontColor=default;labelBorderColor=default;labelBackgroundColor=default;" parent="1" source="oMi_tc-Ln19UIqllwzs8-101" target="oMi_tc-Ln19UIqllwzs8-119" edge="1">
          <mxGeometry relative="1" as="geometry">
            <mxPoint x="-1070" y="3245" as="targetPoint" />
          </mxGeometry>
        </mxCell>
        <mxCell id="oMi_tc-Ln19UIqllwzs8-101" value="legacy" style="whiteSpace=wrap;html=1;align=center;verticalAlign=middle;spacingLeft=8;fontFamily=Helvetica;fontSize=24;fontColor=default;labelBorderColor=none;labelBackgroundColor=default;fillColor=none;gradientColor=none;horizontal=1;" parent="1" vertex="1">
          <mxGeometry x="-1360" y="3225" width="130" height="40" as="geometry" />
        </mxCell>
        <mxCell id="oMi_tc-Ln19UIqllwzs8-102" value="configfs" style="whiteSpace=wrap;html=1;align=center;verticalAlign=middle;spacingLeft=8;fontFamily=Helvetica;fontSize=24;fontColor=default;labelBorderColor=none;labelBackgroundColor=default;fillColor=none;gradientColor=none;horizontal=1;" parent="1" vertex="1">
          <mxGeometry x="-1350" y="3600" width="110" height="40" as="geometry" />
        </mxCell>
        <mxCell id="oMi_tc-Ln19UIqllwzs8-117" style="edgeStyle=orthogonalEdgeStyle;rounded=0;orthogonalLoop=1;jettySize=auto;html=1;exitX=1;exitY=0.75;exitDx=0;exitDy=0;entryX=0;entryY=0.5;entryDx=0;entryDy=0;fontFamily=Helvetica;fontSize=12;fontColor=default;labelBorderColor=default;labelBackgroundColor=default;strokeWidth=3;" parent="1" source="oMi_tc-Ln19UIqllwzs8-109" target="oMi_tc-Ln19UIqllwzs8-116" edge="1">
          <mxGeometry relative="1" as="geometry" />
        </mxCell>
        <mxCell id="oMi_tc-Ln19UIqllwzs8-118" value="udc绑定" style="edgeLabel;html=1;align=center;verticalAlign=middle;resizable=0;points=[];spacingLeft=8;fontFamily=Helvetica;fontSize=22;fontColor=#FF0000;labelBorderColor=default;labelBackgroundColor=default;fillColor=none;gradientColor=none;" parent="oMi_tc-Ln19UIqllwzs8-117" vertex="1" connectable="0">
          <mxGeometry x="0.3784" y="-3" relative="1" as="geometry">
            <mxPoint x="-37" y="43" as="offset" />
          </mxGeometry>
        </mxCell>
        <mxCell id="oMi_tc-Ln19UIqllwzs8-109" value="&lt;div style=&quot;color: #d4d4d4;background-color: #1e1e1e;font-family: Consolas, &#39;Courier New&#39;, monospace;font-weight: normal;font-size: 14px;line-height: 19px;white-space: pre;&quot;&gt;&lt;div&gt;&lt;span style=&quot;color: #569cd6;&quot;&gt;int&lt;/span&gt;&lt;span style=&quot;color: #d4d4d4;&quot;&gt; &lt;/span&gt;&lt;span style=&quot;color: #c8c8c8;&quot;&gt;usb_gadget_probe_driver&lt;/span&gt;&lt;span style=&quot;color: #d4d4d4;&quot;&gt;(&lt;/span&gt;&lt;span style=&quot;color: #569cd6;&quot;&gt;struct&lt;/span&gt;&lt;span style=&quot;color: #d4d4d4;&quot;&gt; usb_gadget_driver *&lt;/span&gt;&lt;span style=&quot;color: #7f7f7f;&quot;&gt;driver&lt;/span&gt;&lt;span style=&quot;color: #d4d4d4;&quot;&gt;)&lt;/span&gt;&lt;/div&gt;&lt;div&gt;&lt;span style=&quot;color: #d4d4d4;&quot;&gt;{&lt;/span&gt;&lt;/div&gt;&lt;div&gt;&lt;span style=&quot;color: #d4d4d4;&quot;&gt;&amp;nbsp; &amp;nbsp; &lt;/span&gt;&lt;span style=&quot;color: #569cd6;&quot;&gt;if&lt;/span&gt;&lt;span style=&quot;color: #d4d4d4;&quot;&gt; (&lt;/span&gt;&lt;span style=&quot;color: #c8c8c8;&quot;&gt;driver&lt;/span&gt;&lt;span style=&quot;color: #d4d4d4;&quot;&gt;-&amp;gt;&lt;/span&gt;&lt;span style=&quot;color: #c8c8c8;&quot;&gt;udc_name&lt;/span&gt;&lt;span style=&quot;color: #d4d4d4;&quot;&gt;) {&lt;/span&gt;&lt;/div&gt;&lt;div&gt;&lt;span style=&quot;color: #d4d4d4;&quot;&gt;&amp;nbsp; &amp;nbsp; &amp;nbsp; &amp;nbsp; &lt;/span&gt;&lt;span style=&quot;color: #6a9955;&quot;&gt;//遍历udc_list&lt;/span&gt;&lt;/div&gt;&lt;div&gt;&lt;span style=&quot;color: #d4d4d4;&quot;&gt;&amp;nbsp; &amp;nbsp; &amp;nbsp; &amp;nbsp; &lt;/span&gt;&lt;span style=&quot;color: #c8c8c8;&quot;&gt;list_for_each_entry&lt;/span&gt;&lt;span style=&quot;color: #d4d4d4;&quot;&gt;(udc, &amp;amp;udc_list, list) {&lt;/span&gt;&lt;/div&gt;&lt;div&gt;&lt;span style=&quot;color: #d4d4d4;&quot;&gt;&amp;nbsp; &amp;nbsp; &amp;nbsp; &amp;nbsp; &lt;/span&gt;&lt;span style=&quot;color: #6a9955;&quot;&gt;// 通过名称匹配&lt;/span&gt;&lt;/div&gt;&lt;div&gt;&lt;span style=&quot;color: #d4d4d4;&quot;&gt;&amp;nbsp; &amp;nbsp; &amp;nbsp; &amp;nbsp; ret = &lt;/span&gt;&lt;span style=&quot;color: #c8c8c8;&quot;&gt;strcmp&lt;/span&gt;&lt;span style=&quot;color: #d4d4d4;&quot;&gt;(&lt;/span&gt;&lt;span style=&quot;color: #c8c8c8;&quot;&gt;driver&lt;/span&gt;&lt;span style=&quot;color: #d4d4d4;&quot;&gt;-&amp;gt;&lt;/span&gt;&lt;span style=&quot;color: #c8c8c8;&quot;&gt;udc_name&lt;/span&gt;&lt;span style=&quot;color: #d4d4d4;&quot;&gt;, &lt;/span&gt;&lt;span style=&quot;color: #c8c8c8;&quot;&gt;dev_name&lt;/span&gt;&lt;span style=&quot;color: #d4d4d4;&quot;&gt;(&amp;amp;&lt;/span&gt;&lt;span style=&quot;color: #c8c8c8;&quot;&gt;udc&lt;/span&gt;&lt;span style=&quot;color: #d4d4d4;&quot;&gt;-&amp;gt;&lt;/span&gt;&lt;span style=&quot;color: #c8c8c8;&quot;&gt;dev&lt;/span&gt;&lt;span style=&quot;color: #d4d4d4;&quot;&gt;));&lt;/span&gt;&lt;/div&gt;&lt;div&gt;&lt;span style=&quot;color: #d4d4d4;&quot;&gt;&amp;nbsp; &amp;nbsp; &amp;nbsp; &amp;nbsp; &lt;/span&gt;&lt;span style=&quot;color: #569cd6;&quot;&gt;if&lt;/span&gt;&lt;span style=&quot;color: #d4d4d4;&quot;&gt; (!ret)&lt;/span&gt;&lt;/div&gt;&lt;div&gt;&lt;span style=&quot;color: #d4d4d4;&quot;&gt;&amp;nbsp; &amp;nbsp; &amp;nbsp; &amp;nbsp; &amp;nbsp; &amp;nbsp; &lt;/span&gt;&lt;span style=&quot;color: #569cd6;&quot;&gt;break&lt;/span&gt;&lt;span style=&quot;color: #d4d4d4;&quot;&gt;;&lt;/span&gt;&lt;/div&gt;&lt;div&gt;&lt;span style=&quot;color: #d4d4d4;&quot;&gt;&amp;nbsp; &amp;nbsp; &amp;nbsp; &amp;nbsp; }&lt;/span&gt;&lt;/div&gt;&lt;div&gt;&lt;span style=&quot;color: #d4d4d4;&quot;&gt;&amp;nbsp; &amp;nbsp; }&lt;/span&gt;&lt;/div&gt;&lt;div&gt;&lt;span style=&quot;color: #d4d4d4;&quot;&gt;&amp;nbsp; &amp;nbsp; ret = &lt;/span&gt;&lt;span style=&quot;color: #c8c8c8;&quot;&gt;udc_bind_to_driver&lt;/span&gt;&lt;span style=&quot;color: #d4d4d4;&quot;&gt;(udc, driver);&lt;/span&gt; &lt;span style=&quot;color: rgb(106, 153, 85);&quot;&gt;// 绑定udc&lt;/span&gt;&lt;/div&gt;&lt;div&gt;&lt;span style=&quot;color: #d4d4d4;&quot;&gt;}&lt;/span&gt;&lt;/div&gt;&lt;/div&gt;" style="text;whiteSpace=wrap;html=1;fontFamily=Helvetica;fontSize=12;fontColor=default;labelBorderColor=default;labelBackgroundColor=default;" parent="1" vertex="1">
          <mxGeometry x="-20" y="3110" width="470" height="270" as="geometry" />
        </mxCell>
        <mxCell id="oMi_tc-Ln19UIqllwzs8-110" style="edgeStyle=orthogonalEdgeStyle;rounded=0;orthogonalLoop=1;jettySize=auto;html=1;fontFamily=Helvetica;fontSize=12;fontColor=default;labelBorderColor=default;labelBackgroundColor=default;" parent="1" source="oMi_tc-Ln19UIqllwzs8-56" target="oMi_tc-Ln19UIqllwzs8-109" edge="1">
          <mxGeometry relative="1" as="geometry" />
        </mxCell>
        <mxCell id="oMi_tc-Ln19UIqllwzs8-111" value="遍历udc list链表" style="edgeLabel;html=1;align=center;verticalAlign=middle;resizable=0;points=[];spacingLeft=8;fontFamily=Helvetica;fontSize=12;fontColor=default;labelBorderColor=default;labelBackgroundColor=default;fillColor=none;gradientColor=none;" parent="oMi_tc-Ln19UIqllwzs8-110" vertex="1" connectable="0">
          <mxGeometry x="-0.0143" y="-3" relative="1" as="geometry">
            <mxPoint as="offset" />
          </mxGeometry>
        </mxCell>
        <mxCell id="oMi_tc-Ln19UIqllwzs8-114" style="edgeStyle=orthogonalEdgeStyle;rounded=0;orthogonalLoop=1;jettySize=auto;html=1;entryX=0;entryY=0.5;entryDx=0;entryDy=0;fontFamily=Helvetica;fontSize=12;fontColor=default;labelBorderColor=default;labelBackgroundColor=default;" parent="1" source="oMi_tc-Ln19UIqllwzs8-113" target="oMi_tc-Ln19UIqllwzs8-15" edge="1">
          <mxGeometry relative="1" as="geometry">
            <Array as="points">
              <mxPoint x="-600" y="2325" />
              <mxPoint x="-600" y="2470" />
            </Array>
          </mxGeometry>
        </mxCell>
        <mxCell id="oMi_tc-Ln19UIqllwzs8-113" value="&lt;div style=&quot;color: #d4d4d4;background-color: #1e1e1e;font-family: Consolas, &#39;Courier New&#39;, monospace;font-weight: normal;font-size: 14px;line-height: 19px;white-space: pre;&quot;&gt;&lt;div&gt;&lt;span style=&quot;color: #4ec9b0;&quot;&gt;crg20_otg&lt;/span&gt;&lt;span style=&quot;color: #d4d4d4;&quot;&gt;: &lt;/span&gt;&lt;span style=&quot;color: #c8c8c8;&quot;&gt;crg20otg@fe03a000&lt;/span&gt;&lt;span style=&quot;color: #d4d4d4;&quot;&gt; {&lt;/span&gt;&lt;/div&gt;&lt;div&gt;&lt;span style=&quot;color: #d4d4d4;&quot;&gt;&amp;nbsp; &amp;nbsp; compatible = &lt;/span&gt;&lt;span style=&quot;color: #ce9178;&quot;&gt;&quot;xxx, xxx-crg-otg-v2&quot;&lt;/span&gt;&lt;span style=&quot;color: #d4d4d4;&quot;&gt;;&lt;/span&gt;&lt;/div&gt;&lt;div&gt;&lt;span style=&quot;color: #d4d4d4;&quot;&gt;&amp;nbsp; &amp;nbsp; status = &lt;/span&gt;&lt;span style=&quot;color: #ce9178;&quot;&gt;&quot;disabled&quot;&lt;/span&gt;&lt;span style=&quot;color: #d4d4d4;&quot;&gt;;&lt;/span&gt;&lt;/div&gt;&lt;div&gt;&lt;span style=&quot;color: #d4d4d4;&quot;&gt;&amp;nbsp; &amp;nbsp; usb2-phy-reg = &amp;lt;&lt;/span&gt;&lt;span style=&quot;color: #b5cea8;&quot;&gt;0xfe03a000&lt;/span&gt;&lt;span style=&quot;color: #d4d4d4;&quot;&gt;&amp;gt;;&lt;/span&gt;&lt;/div&gt;&lt;div&gt;&lt;span style=&quot;color: #d4d4d4;&quot;&gt;&amp;nbsp; &amp;nbsp; usb2-phy-reg-size = &amp;lt;&lt;/span&gt;&lt;span style=&quot;color: #b5cea8;&quot;&gt;0x80&lt;/span&gt;&lt;span style=&quot;color: #d4d4d4;&quot;&gt;&amp;gt;;&lt;/span&gt;&lt;/div&gt;&lt;div&gt;&lt;span style=&quot;color: #d4d4d4;&quot;&gt;&amp;nbsp; &amp;nbsp; usb3-phy-reg = &amp;lt;&lt;/span&gt;&lt;span style=&quot;color: #b5cea8;&quot;&gt;0xfe03a080&lt;/span&gt;&lt;span style=&quot;color: #d4d4d4;&quot;&gt;&amp;gt;;&lt;/span&gt;&lt;/div&gt;&lt;div&gt;&lt;span style=&quot;color: #d4d4d4;&quot;&gt;&amp;nbsp; &amp;nbsp; usb3-phy-reg-size = &amp;lt;&lt;/span&gt;&lt;span style=&quot;color: #b5cea8;&quot;&gt;0x20&lt;/span&gt;&lt;span style=&quot;color: #d4d4d4;&quot;&gt;&amp;gt;;&lt;/span&gt;&lt;/div&gt;&lt;div&gt;&lt;span style=&quot;color: #d4d4d4;&quot;&gt;&amp;nbsp; &amp;nbsp; interrupts = &amp;lt;&lt;/span&gt;&lt;span style=&quot;color: #b5cea8;&quot;&gt;0&lt;/span&gt;&lt;span style=&quot;color: #d4d4d4;&quot;&gt; &lt;/span&gt;&lt;span style=&quot;color: #b5cea8;&quot;&gt;129&lt;/span&gt;&lt;span style=&quot;color: #d4d4d4;&quot;&gt; &lt;/span&gt;&lt;span style=&quot;color: #b5cea8;&quot;&gt;IRQ_TYPE_EDGE_RISING&lt;/span&gt;&lt;span style=&quot;color: #d4d4d4;&quot;&gt;&amp;gt;;&lt;/span&gt;&lt;/div&gt;&lt;div&gt;&lt;span style=&quot;color: #d4d4d4;&quot;&gt;&amp;nbsp; &amp;nbsp; regulator = &amp;lt;&lt;/span&gt;&lt;span style=&quot;color: #b5cea8;&quot;&gt;1&lt;/span&gt;&lt;span style=&quot;color: #d4d4d4;&quot;&gt;&amp;gt;;&lt;/span&gt;&lt;/div&gt;&lt;div&gt;&lt;span style=&quot;color: #d4d4d4;&quot;&gt;};&lt;/span&gt;&lt;/div&gt;&lt;/div&gt;" style="text;whiteSpace=wrap;html=1;fontFamily=Helvetica;fontSize=12;fontColor=default;labelBorderColor=default;labelBackgroundColor=default;" parent="1" vertex="1">
          <mxGeometry x="-1110" y="2220" width="370" height="210" as="geometry" />
        </mxCell>
        <mxCell id="oMi_tc-Ln19UIqllwzs8-160" style="rounded=0;orthogonalLoop=1;jettySize=auto;html=1;exitX=1;exitY=0.75;exitDx=0;exitDy=0;fontFamily=Helvetica;fontSize=12;fontColor=default;labelBorderColor=default;labelBackgroundColor=default;entryX=0;entryY=0.5;entryDx=0;entryDy=0;" parent="1" source="oMi_tc-Ln19UIqllwzs8-116" target="oMi_tc-Ln19UIqllwzs8-159" edge="1">
          <mxGeometry relative="1" as="geometry" />
        </mxCell>
        <mxCell id="oMi_tc-Ln19UIqllwzs8-116" value="&lt;div style=&quot;color: #d4d4d4;background-color: #1e1e1e;font-family: Consolas, &#39;Courier New&#39;, monospace;font-weight: normal;font-size: 14px;line-height: 19px;white-space: pre;&quot;&gt;&lt;div&gt;&lt;span style=&quot;color: #569cd6;&quot;&gt;static&lt;/span&gt;&lt;span style=&quot;color: #d4d4d4;&quot;&gt; &lt;/span&gt;&lt;span style=&quot;color: #569cd6;&quot;&gt;int&lt;/span&gt;&lt;span style=&quot;color: #d4d4d4;&quot;&gt; &lt;/span&gt;&lt;span style=&quot;color: #c8c8c8;&quot;&gt;udc_bind_to_driver&lt;/span&gt;&lt;span style=&quot;color: #d4d4d4;&quot;&gt;(&lt;/span&gt;&lt;span style=&quot;color: #569cd6;&quot;&gt;struct&lt;/span&gt;&lt;span style=&quot;color: #d4d4d4;&quot;&gt; usb_udc *&lt;/span&gt;&lt;span style=&quot;color: #7f7f7f;&quot;&gt;udc&lt;/span&gt;&lt;span style=&quot;color: #d4d4d4;&quot;&gt;, &lt;/span&gt;&lt;span style=&quot;color: #569cd6;&quot;&gt;struct&lt;/span&gt;&lt;span style=&quot;color: #d4d4d4;&quot;&gt; usb_gadget_driver *&lt;/span&gt;&lt;span style=&quot;color: #7f7f7f;&quot;&gt;driver&lt;/span&gt;&lt;span style=&quot;color: #d4d4d4;&quot;&gt;)&lt;/span&gt;&lt;/div&gt;&lt;div&gt;&lt;span style=&quot;color: #d4d4d4;&quot;&gt;{&lt;/span&gt;&lt;/div&gt;&lt;div&gt;&lt;span style=&quot;color: #6a9955;&quot;&gt;&amp;nbsp; &amp;nbsp; /* 驱动绑定 */&lt;/span&gt;&lt;/div&gt;&lt;div&gt;&lt;span style=&quot;color: #d4d4d4;&quot;&gt;&amp;nbsp; &amp;nbsp; &lt;/span&gt;&lt;span style=&quot;color: #c8c8c8;&quot;&gt;udc&lt;/span&gt;&lt;span style=&quot;color: #d4d4d4;&quot;&gt;-&amp;gt;&lt;/span&gt;&lt;span style=&quot;color: #c8c8c8;&quot;&gt;driver&lt;/span&gt;&lt;span style=&quot;color: #d4d4d4;&quot;&gt; = driver;&lt;/span&gt;&lt;/div&gt;&lt;div&gt;&lt;span style=&quot;color: #d4d4d4;&quot;&gt;&amp;nbsp; &amp;nbsp; &lt;/span&gt;&lt;span style=&quot;color: #c8c8c8;&quot;&gt;udc&lt;/span&gt;&lt;span style=&quot;color: #d4d4d4;&quot;&gt;-&amp;gt;&lt;/span&gt;&lt;span style=&quot;color: #c8c8c8;&quot;&gt;gadget&lt;/span&gt;&lt;span style=&quot;color: #d4d4d4;&quot;&gt;-&amp;gt;&lt;/span&gt;&lt;span style=&quot;color: #c8c8c8;&quot;&gt;dev&lt;/span&gt;&lt;span style=&quot;color: #d4d4d4;&quot;&gt;.&lt;/span&gt;&lt;span style=&quot;color: #c8c8c8;&quot;&gt;driver&lt;/span&gt;&lt;span style=&quot;color: #d4d4d4;&quot;&gt; = &amp;amp;&lt;/span&gt;&lt;span style=&quot;color: #c8c8c8;&quot;&gt;driver&lt;/span&gt;&lt;span style=&quot;color: #d4d4d4;&quot;&gt;-&amp;gt;&lt;/span&gt;&lt;span style=&quot;color: #c8c8c8;&quot;&gt;driver&lt;/span&gt;&lt;span style=&quot;color: #d4d4d4;&quot;&gt;;&lt;/span&gt;&lt;/div&gt;&lt;br&gt;&lt;div&gt;&lt;span style=&quot;color: #d4d4d4;&quot;&gt;&amp;nbsp; &amp;nbsp; ret = &lt;/span&gt;&lt;span style=&quot;color: #c8c8c8;&quot;&gt;driver&lt;/span&gt;&lt;span style=&quot;color: #d4d4d4;&quot;&gt;-&amp;gt;&lt;/span&gt;&lt;span style=&quot;color: #c8c8c8;&quot;&gt;bind&lt;/span&gt;&lt;span style=&quot;color: #d4d4d4;&quot;&gt;(&lt;/span&gt;&lt;span style=&quot;color: #c8c8c8;&quot;&gt;udc&lt;/span&gt;&lt;span style=&quot;color: #d4d4d4;&quot;&gt;-&amp;gt;&lt;/span&gt;&lt;span style=&quot;color: #c8c8c8;&quot;&gt;gadget&lt;/span&gt;&lt;span style=&quot;color: #d4d4d4;&quot;&gt;, driver);&lt;/span&gt;&lt;span style=&quot;color: #6a9955;&quot;&gt;/* 调用driver的bind函数 */&lt;/span&gt;&lt;/div&gt;&lt;div&gt;&lt;div style=&quot;line-height: 19px;&quot;&gt;    ret = &lt;span style=&quot;color: #c8c8c8;&quot;&gt;usb_gadget_udc_start&lt;/span&gt;(udc);&lt;/div&gt;&lt;/div&gt;&lt;div&gt;&lt;span style=&quot;color: #d4d4d4;&quot;&gt;&amp;nbsp; &amp;nbsp; &lt;/span&gt;&lt;span style=&quot;color: #c8c8c8;&quot;&gt;usb_udc_connect_control&lt;/span&gt;&lt;span style=&quot;color: #d4d4d4;&quot;&gt;(udc);&lt;/span&gt;&lt;span style=&quot;color: #6a9955;&quot;&gt;/* 待分析 */&lt;/span&gt;&lt;/div&gt;&lt;br&gt;&lt;div&gt;&lt;span style=&quot;color: #d4d4d4;&quot;&gt;&amp;nbsp; &amp;nbsp; &lt;/span&gt;&lt;span style=&quot;color: #c8c8c8;&quot;&gt;kobject_uevent&lt;/span&gt;&lt;span style=&quot;color: #d4d4d4;&quot;&gt;(&amp;amp;&lt;/span&gt;&lt;span style=&quot;color: #c8c8c8;&quot;&gt;udc&lt;/span&gt;&lt;span style=&quot;color: #d4d4d4;&quot;&gt;-&amp;gt;&lt;/span&gt;&lt;span style=&quot;color: #c8c8c8;&quot;&gt;dev&lt;/span&gt;&lt;span style=&quot;color: #d4d4d4;&quot;&gt;.&lt;/span&gt;&lt;span style=&quot;color: #c8c8c8;&quot;&gt;kobj&lt;/span&gt;&lt;span style=&quot;color: #d4d4d4;&quot;&gt;, KOBJ_CHANGE);&lt;/span&gt;&lt;/div&gt;&lt;div&gt;&lt;span style=&quot;color: #d4d4d4;&quot;&gt;}&lt;/span&gt;&lt;/div&gt;&lt;/div&gt;" style="text;whiteSpace=wrap;html=1;fontFamily=Helvetica;fontSize=12;fontColor=default;labelBorderColor=default;labelBackgroundColor=default;" parent="1" vertex="1">
          <mxGeometry x="790" y="3110" width="570" height="230" as="geometry" />
        </mxCell>
        <mxCell id="oMi_tc-Ln19UIqllwzs8-122" style="edgeStyle=orthogonalEdgeStyle;rounded=0;orthogonalLoop=1;jettySize=auto;html=1;exitX=0.75;exitY=1;exitDx=0;exitDy=0;entryX=0;entryY=0.5;entryDx=0;entryDy=0;fontFamily=Helvetica;fontSize=12;fontColor=default;labelBorderColor=default;labelBackgroundColor=default;curved=1;fillColor=#d80073;strokeColor=#A50040;shadow=1;strokeWidth=2;" parent="1" source="oMi_tc-Ln19UIqllwzs8-119" target="oMi_tc-Ln19UIqllwzs8-98" edge="1">
          <mxGeometry relative="1" as="geometry">
            <Array as="points">
              <mxPoint x="-630" y="3420" />
              <mxPoint x="-630" y="3346" />
            </Array>
          </mxGeometry>
        </mxCell>
        <mxCell id="oMi_tc-Ln19UIqllwzs8-124" style="edgeStyle=orthogonalEdgeStyle;rounded=0;orthogonalLoop=1;jettySize=auto;html=1;fontFamily=Helvetica;fontSize=12;fontColor=default;labelBorderColor=default;labelBackgroundColor=default;entryX=0.75;entryY=0;entryDx=0;entryDy=0;exitX=1;exitY=0.25;exitDx=0;exitDy=0;" parent="1" source="oMi_tc-Ln19UIqllwzs8-119" target="oMi_tc-Ln19UIqllwzs8-116" edge="1">
          <mxGeometry relative="1" as="geometry">
            <mxPoint x="690" y="3000" as="targetPoint" />
            <mxPoint x="-890" y="3000" as="sourcePoint" />
            <Array as="points">
              <mxPoint x="-510" y="3146" />
              <mxPoint x="-510" y="3035" />
              <mxPoint x="1218" y="3035" />
            </Array>
          </mxGeometry>
        </mxCell>
        <mxCell id="oMi_tc-Ln19UIqllwzs8-119" value="&lt;div style=&quot;color: #d4d4d4;background-color: #1e1e1e;font-family: Consolas, &#39;Courier New&#39;, monospace;font-weight: normal;font-size: 14px;line-height: 19px;white-space: pre;&quot;&gt;&lt;div&gt;&lt;span style=&quot;color: #6a9955;&quot;&gt;/* 串口设备 */&lt;/span&gt;&lt;/div&gt;&lt;div&gt;&lt;span style=&quot;color: #569cd6;&quot;&gt;static&lt;/span&gt;&lt;span style=&quot;color: #d4d4d4;&quot;&gt; &lt;/span&gt;&lt;span style=&quot;color: #569cd6;&quot;&gt;struct&lt;/span&gt;&lt;span style=&quot;color: #d4d4d4;&quot;&gt; usb_composite_driver gserial_driver = {&lt;/span&gt;&lt;/div&gt;&lt;div&gt;&lt;span style=&quot;color: #d4d4d4;&quot;&gt;&amp;nbsp; &amp;nbsp; .name &amp;nbsp; &amp;nbsp; &amp;nbsp; = &lt;/span&gt;&lt;span style=&quot;color: #ce9178;&quot;&gt;&quot;g_serial&quot;&lt;/span&gt;&lt;span style=&quot;color: #d4d4d4;&quot;&gt;,&lt;/span&gt;&lt;/div&gt;&lt;div&gt;&lt;span style=&quot;color: #d4d4d4;&quot;&gt;&amp;nbsp; &amp;nbsp; .dev &amp;nbsp; &amp;nbsp; &amp;nbsp; &amp;nbsp;= &amp;amp;device_desc,&lt;/span&gt;&lt;span style=&quot;color: #6a9955;&quot;&gt; &amp;nbsp;/* 设备描述符 */&lt;/span&gt;&lt;/div&gt;&lt;div&gt;&lt;span style=&quot;color: #d4d4d4;&quot;&gt;&amp;nbsp; &amp;nbsp; .strings &amp;nbsp; &amp;nbsp;= dev_strings,&lt;/span&gt;&lt;/div&gt;&lt;div&gt;&lt;span style=&quot;color: #d4d4d4;&quot;&gt;&amp;nbsp; &amp;nbsp; .max_speed &amp;nbsp;= USB_SPEED_SUPER,&lt;/span&gt;&lt;/div&gt;&lt;div&gt;&lt;span style=&quot;color: #d4d4d4;&quot;&gt;&amp;nbsp; &amp;nbsp; .bind &amp;nbsp; &amp;nbsp; &amp;nbsp; = gs_bind,&lt;/span&gt;&lt;span style=&quot;color: #6a9955;&quot;&gt; /* 绑定函数 */&lt;/span&gt;&lt;/div&gt;&lt;div&gt;&lt;span style=&quot;color: #d4d4d4;&quot;&gt;&amp;nbsp; &amp;nbsp; .unbind &amp;nbsp; &amp;nbsp; = gs_unbind,&lt;/span&gt;&lt;/div&gt;&lt;div&gt;&lt;span style=&quot;color: #d4d4d4;&quot;&gt;};&lt;/span&gt;&lt;/div&gt;&lt;br&gt;&lt;div&gt;&lt;span style=&quot;color: #569cd6;&quot;&gt;static&lt;/span&gt;&lt;span style=&quot;color: #d4d4d4;&quot;&gt; &lt;/span&gt;&lt;span style=&quot;color: #569cd6;&quot;&gt;int&lt;/span&gt;&lt;span style=&quot;color: #d4d4d4;&quot;&gt; __init &lt;/span&gt;&lt;span style=&quot;color: #c8c8c8;&quot;&gt;init&lt;/span&gt;&lt;span style=&quot;color: #d4d4d4;&quot;&gt;(&lt;/span&gt;&lt;span style=&quot;color: #569cd6;&quot;&gt;void&lt;/span&gt;&lt;span style=&quot;color: #d4d4d4;&quot;&gt;)&lt;/span&gt;&lt;/div&gt;&lt;div&gt;&lt;span style=&quot;color: #d4d4d4;&quot;&gt;{&lt;/span&gt;&lt;/div&gt;&lt;div&gt;&lt;span style=&quot;color: #d4d4d4;&quot;&gt;&amp;nbsp; &amp;nbsp; &lt;/span&gt;&lt;span style=&quot;color: #c8c8c8;&quot;&gt;serial_config_driver&lt;/span&gt;&lt;span style=&quot;color: #d4d4d4;&quot;&gt;.&lt;/span&gt;&lt;span style=&quot;color: #c8c8c8;&quot;&gt;label&lt;/span&gt;&lt;span style=&quot;color: #d4d4d4;&quot;&gt; = &lt;/span&gt;&lt;span style=&quot;color: #ce9178;&quot;&gt;&quot;Generic Serial config&quot;&lt;/span&gt;&lt;span style=&quot;color: #d4d4d4;&quot;&gt;;&lt;/span&gt;&lt;/div&gt;&lt;div&gt;&lt;span style=&quot;color: #d4d4d4;&quot;&gt;&amp;nbsp; &amp;nbsp; &lt;/span&gt;&lt;span style=&quot;color: #c8c8c8;&quot;&gt;serial_config_driver&lt;/span&gt;&lt;span style=&quot;color: #d4d4d4;&quot;&gt;.&lt;/span&gt;&lt;span style=&quot;color: #c8c8c8;&quot;&gt;bConfigurationValue&lt;/span&gt;&lt;span style=&quot;color: #d4d4d4;&quot;&gt; = &lt;/span&gt;&lt;span style=&quot;color: #b5cea8;&quot;&gt;1&lt;/span&gt;&lt;span style=&quot;color: #d4d4d4;&quot;&gt;;&lt;/span&gt;&lt;/div&gt;&lt;div&gt;&lt;span style=&quot;color: #d4d4d4;&quot;&gt;&amp;nbsp; &amp;nbsp; &lt;/span&gt;&lt;span style=&quot;color: #c8c8c8;&quot;&gt;device_desc&lt;/span&gt;&lt;span style=&quot;color: #d4d4d4;&quot;&gt;.&lt;/span&gt;&lt;span style=&quot;color: #c8c8c8;&quot;&gt;bDeviceClass&lt;/span&gt;&lt;span style=&quot;color: #d4d4d4;&quot;&gt; = USB_CLASS_VENDOR_SPEC;&lt;/span&gt;&lt;/div&gt;&lt;div&gt;&lt;span style=&quot;color: #d4d4d4;&quot;&gt;&amp;nbsp; &amp;nbsp; &lt;/span&gt;&lt;span style=&quot;color: #c8c8c8;&quot;&gt;device_desc&lt;/span&gt;&lt;span style=&quot;color: #d4d4d4;&quot;&gt;.&lt;/span&gt;&lt;span style=&quot;color: #c8c8c8;&quot;&gt;idProduct&lt;/span&gt;&lt;span style=&quot;color: #d4d4d4;&quot;&gt; =&lt;/span&gt;&lt;span style=&quot;color: #c8c8c8;&quot;&gt;cpu_to_le16&lt;/span&gt;&lt;span style=&quot;color: #d4d4d4;&quot;&gt;(GS_PRODUCT_ID);&lt;/span&gt;&lt;/div&gt;&lt;div&gt;&lt;span style=&quot;color: #d4d4d4;&quot;&gt;&amp;nbsp; &amp;nbsp; &lt;/span&gt;&lt;span style=&quot;color: #c8c8c8;&quot;&gt;strings_dev&lt;/span&gt;&lt;span style=&quot;color: #d4d4d4;&quot;&gt;[STRING_DESCRIPTION_IDX].&lt;/span&gt;&lt;span style=&quot;color: #c8c8c8;&quot;&gt;s&lt;/span&gt;&lt;span style=&quot;color: #d4d4d4;&quot;&gt; = &lt;/span&gt;&lt;span style=&quot;color: #c8c8c8;&quot;&gt;serial_config_driver&lt;/span&gt;&lt;span style=&quot;color: #d4d4d4;&quot;&gt;.&lt;/span&gt;&lt;span style=&quot;color: #c8c8c8;&quot;&gt;label&lt;/span&gt;&lt;span style=&quot;color: #d4d4d4;&quot;&gt;;&lt;/span&gt;&lt;/div&gt;&lt;div&gt;&lt;span style=&quot;color: #d4d4d4;&quot;&gt;&amp;nbsp; &amp;nbsp; &lt;/span&gt;&lt;span style=&quot;color: #569cd6;&quot;&gt;return&lt;/span&gt;&lt;span style=&quot;color: #d4d4d4;&quot;&gt; &lt;/span&gt;&lt;span style=&quot;color: #c8c8c8;&quot;&gt;usb_composite_probe&lt;/span&gt;&lt;span style=&quot;color: #d4d4d4;&quot;&gt;(&amp;amp;gserial_driver);&lt;/span&gt;&lt;/div&gt;&lt;div&gt;&lt;span style=&quot;color: #d4d4d4;&quot;&gt;}&lt;/span&gt;&lt;/div&gt;&lt;/div&gt;" style="text;whiteSpace=wrap;html=1;fontFamily=Helvetica;fontSize=12;fontColor=default;labelBorderColor=default;labelBackgroundColor=default;" parent="1" vertex="1">
          <mxGeometry x="-1200" y="3055" width="550" height="365" as="geometry" />
        </mxCell>
        <mxCell id="oMi_tc-Ln19UIqllwzs8-128" value="gs_bind" style="edgeLabel;html=1;align=center;verticalAlign=middle;resizable=0;points=[];spacingLeft=8;fontFamily=Helvetica;fontSize=22;fontColor=#FF0000;labelBorderColor=default;labelBackgroundColor=default;fillColor=none;gradientColor=none;" parent="1" vertex="1" connectable="0">
          <mxGeometry x="-312.5" y="3040" as="geometry" />
        </mxCell>
        <mxCell id="Qq1oJCVKSSWmtxD43wL0-137" value="" style="edgeStyle=orthogonalEdgeStyle;rounded=0;orthogonalLoop=1;jettySize=auto;html=1;" edge="1" parent="1" source="oMi_tc-Ln19UIqllwzs8-130" target="Qq1oJCVKSSWmtxD43wL0-136">
          <mxGeometry relative="1" as="geometry" />
        </mxCell>
        <mxCell id="Qq1oJCVKSSWmtxD43wL0-138" value="Text" style="edgeLabel;html=1;align=center;verticalAlign=middle;resizable=0;points=[];" vertex="1" connectable="0" parent="Qq1oJCVKSSWmtxD43wL0-137">
          <mxGeometry x="-0.0364" y="-1" relative="1" as="geometry">
            <mxPoint y="-1" as="offset" />
          </mxGeometry>
        </mxCell>
        <mxCell id="oMi_tc-Ln19UIqllwzs8-130" value="FIFO" style="shape=table;startSize=30;container=1;collapsible=0;childLayout=tableLayout;fixedRows=1;rowLines=0;fontStyle=0;strokeColor=default;fontSize=16;align=center;verticalAlign=middle;spacingLeft=8;fontFamily=Helvetica;fontColor=default;labelBorderColor=none;labelBackgroundColor=#CCFFFF;fillColor=none;gradientColor=none;" parent="1" vertex="1">
          <mxGeometry x="1310" y="2820" width="90" height="120" as="geometry" />
        </mxCell>
        <mxCell id="oMi_tc-Ln19UIqllwzs8-131" value="" style="shape=tableRow;horizontal=0;startSize=0;swimlaneHead=0;swimlaneBody=0;top=0;left=0;bottom=0;right=0;collapsible=0;dropTarget=0;fillColor=none;points=[[0,0.5],[1,0.5]];portConstraint=eastwest;strokeColor=inherit;fontSize=16;align=left;verticalAlign=middle;spacingLeft=8;fontFamily=Helvetica;fontColor=default;labelBorderColor=default;labelBackgroundColor=default;" parent="oMi_tc-Ln19UIqllwzs8-130" vertex="1">
          <mxGeometry y="30" width="90" height="30" as="geometry" />
        </mxCell>
        <mxCell id="oMi_tc-Ln19UIqllwzs8-132" value="U" style="shape=partialRectangle;html=1;whiteSpace=wrap;connectable=0;fillColor=none;top=0;left=0;bottom=0;right=0;overflow=hidden;pointerEvents=1;strokeColor=inherit;fontSize=20;align=left;verticalAlign=middle;spacingLeft=8;fontFamily=Helvetica;fontColor=default;labelBorderColor=none;labelBackgroundColor=#99CCFF;" parent="oMi_tc-Ln19UIqllwzs8-131" vertex="1">
          <mxGeometry width="30" height="30" as="geometry">
            <mxRectangle width="30" height="30" as="alternateBounds" />
          </mxGeometry>
        </mxCell>
        <mxCell id="oMi_tc-Ln19UIqllwzs8-133" value="EP0" style="shape=partialRectangle;html=1;whiteSpace=wrap;connectable=0;fillColor=none;top=0;left=0;bottom=0;right=0;align=left;spacingLeft=6;overflow=hidden;strokeColor=inherit;fontSize=16;verticalAlign=middle;fontFamily=Helvetica;fontColor=default;labelBorderColor=default;labelBackgroundColor=#CCFFE6;" parent="oMi_tc-Ln19UIqllwzs8-131" vertex="1">
          <mxGeometry x="30" width="60" height="30" as="geometry">
            <mxRectangle width="60" height="30" as="alternateBounds" />
          </mxGeometry>
        </mxCell>
        <mxCell id="oMi_tc-Ln19UIqllwzs8-134" value="" style="shape=tableRow;horizontal=0;startSize=0;swimlaneHead=0;swimlaneBody=0;top=0;left=0;bottom=0;right=0;collapsible=0;dropTarget=0;fillColor=none;points=[[0,0.5],[1,0.5]];portConstraint=eastwest;strokeColor=inherit;fontSize=16;align=left;verticalAlign=middle;spacingLeft=8;fontFamily=Helvetica;fontColor=default;labelBorderColor=default;labelBackgroundColor=default;" parent="oMi_tc-Ln19UIqllwzs8-130" vertex="1">
          <mxGeometry y="60" width="90" height="30" as="geometry" />
        </mxCell>
        <mxCell id="oMi_tc-Ln19UIqllwzs8-135" value="&lt;span style=&quot;font-size: 20px; background-color: rgb(153, 204, 255);&quot;&gt;D&lt;/span&gt;" style="shape=partialRectangle;html=1;whiteSpace=wrap;connectable=0;fillColor=none;top=0;left=0;bottom=0;right=0;overflow=hidden;strokeColor=inherit;fontSize=16;align=left;verticalAlign=middle;spacingLeft=8;fontFamily=Helvetica;fontColor=default;labelBorderColor=none;labelBackgroundColor=default;" parent="oMi_tc-Ln19UIqllwzs8-134" vertex="1">
          <mxGeometry width="30" height="30" as="geometry">
            <mxRectangle width="30" height="30" as="alternateBounds" />
          </mxGeometry>
        </mxCell>
        <mxCell id="oMi_tc-Ln19UIqllwzs8-136" value="EP1" style="shape=partialRectangle;html=1;whiteSpace=wrap;connectable=0;fillColor=none;top=0;left=0;bottom=0;right=0;align=left;spacingLeft=6;overflow=hidden;strokeColor=inherit;fontSize=16;verticalAlign=middle;fontFamily=Helvetica;fontColor=default;labelBorderColor=default;labelBackgroundColor=#ccffe6;" parent="oMi_tc-Ln19UIqllwzs8-134" vertex="1">
          <mxGeometry x="30" width="60" height="30" as="geometry">
            <mxRectangle width="60" height="30" as="alternateBounds" />
          </mxGeometry>
        </mxCell>
        <mxCell id="oMi_tc-Ln19UIqllwzs8-137" value="" style="shape=tableRow;horizontal=0;startSize=0;swimlaneHead=0;swimlaneBody=0;top=0;left=0;bottom=0;right=0;collapsible=0;dropTarget=0;fillColor=none;points=[[0,0.5],[1,0.5]];portConstraint=eastwest;strokeColor=inherit;fontSize=16;align=left;verticalAlign=middle;spacingLeft=8;fontFamily=Helvetica;fontColor=default;labelBorderColor=default;labelBackgroundColor=default;" parent="oMi_tc-Ln19UIqllwzs8-130" vertex="1">
          <mxGeometry y="90" width="90" height="30" as="geometry" />
        </mxCell>
        <mxCell id="oMi_tc-Ln19UIqllwzs8-138" value="&lt;span style=&quot;font-size: 20px; background-color: rgb(153, 204, 255);&quot;&gt;C&lt;/span&gt;" style="shape=partialRectangle;html=1;whiteSpace=wrap;connectable=0;fillColor=none;top=0;left=0;bottom=0;right=0;overflow=hidden;strokeColor=inherit;fontSize=16;align=left;verticalAlign=middle;spacingLeft=8;fontFamily=Helvetica;fontColor=default;labelBorderColor=none;labelBackgroundColor=default;" parent="oMi_tc-Ln19UIqllwzs8-137" vertex="1">
          <mxGeometry width="30" height="30" as="geometry">
            <mxRectangle width="30" height="30" as="alternateBounds" />
          </mxGeometry>
        </mxCell>
        <mxCell id="oMi_tc-Ln19UIqllwzs8-139" value="EP...." style="shape=partialRectangle;html=1;whiteSpace=wrap;connectable=0;fillColor=none;top=0;left=0;bottom=0;right=0;align=left;spacingLeft=6;overflow=hidden;strokeColor=inherit;fontSize=16;verticalAlign=middle;fontFamily=Helvetica;fontColor=default;labelBorderColor=default;labelBackgroundColor=#ccffe6;" parent="oMi_tc-Ln19UIqllwzs8-137" vertex="1">
          <mxGeometry x="30" width="60" height="30" as="geometry">
            <mxRectangle width="60" height="30" as="alternateBounds" />
          </mxGeometry>
        </mxCell>
        <mxCell id="oMi_tc-Ln19UIqllwzs8-140" style="rounded=0;orthogonalLoop=1;jettySize=auto;html=1;fontFamily=Helvetica;fontSize=12;fontColor=default;labelBorderColor=default;labelBackgroundColor=default;entryX=0;entryY=0;entryDx=0;entryDy=0;exitX=1;exitY=0.5;exitDx=0;exitDy=0;" parent="1" source="oMi_tc-Ln19UIqllwzs8-53" target="oMi_tc-Ln19UIqllwzs8-130" edge="1">
          <mxGeometry relative="1" as="geometry">
            <mxPoint x="1180" y="2850" as="sourcePoint" />
          </mxGeometry>
        </mxCell>
        <mxCell id="oMi_tc-Ln19UIqllwzs8-141" style="edgeStyle=orthogonalEdgeStyle;rounded=0;orthogonalLoop=1;jettySize=auto;html=1;exitX=1;exitY=0.5;exitDx=0;exitDy=0;fontFamily=Helvetica;fontSize=12;fontColor=default;labelBorderColor=default;labelBackgroundColor=default;entryX=0;entryY=0.5;entryDx=0;entryDy=0;" parent="1" source="oMi_tc-Ln19UIqllwzs8-134" target="oMi_tc-Ln19UIqllwzs8-142" edge="1">
          <mxGeometry relative="1" as="geometry">
            <mxPoint x="1450" y="2895" as="targetPoint" />
          </mxGeometry>
        </mxCell>
        <mxCell id="oMi_tc-Ln19UIqllwzs8-142" value="&lt;font style=&quot;font-size: 14px; background-color: rgb(229, 204, 255);&quot;&gt;&amp;nbsp;SIE&amp;nbsp;&lt;/font&gt;" style="whiteSpace=wrap;html=1;aspect=fixed;align=center;verticalAlign=middle;spacingLeft=8;fontFamily=Helvetica;fontSize=12;fontColor=default;labelBorderColor=default;labelBackgroundColor=default;fillColor=none;gradientColor=none;" parent="1" vertex="1">
          <mxGeometry x="1430" y="2865" width="60" height="60" as="geometry" />
        </mxCell>
        <mxCell id="oMi_tc-Ln19UIqllwzs8-148" value="PHY" style="text;html=1;align=center;verticalAlign=middle;whiteSpace=wrap;rounded=0;fontFamily=Helvetica;fontSize=12;fontColor=default;labelBorderColor=none;labelBackgroundColor=default;" parent="1" vertex="1">
          <mxGeometry x="1430" y="2865" width="30" height="20" as="geometry" />
        </mxCell>
        <mxCell id="oMi_tc-Ln19UIqllwzs8-149" value="" style="verticalLabelPosition=bottom;verticalAlign=top;html=1;shape=mxgraph.flowchart.parallel_mode;pointerEvents=1;align=left;spacingLeft=8;fontFamily=Helvetica;fontSize=12;fontColor=default;labelBorderColor=default;labelBackgroundColor=default;fillColor=none;gradientColor=none;" parent="1" vertex="1">
          <mxGeometry x="1500" y="2883.5" width="135" height="23" as="geometry" />
        </mxCell>
        <mxCell id="oMi_tc-Ln19UIqllwzs8-151" value="DP" style="text;html=1;align=center;verticalAlign=middle;resizable=0;points=[];autosize=1;strokeColor=none;fillColor=none;fontFamily=Helvetica;fontSize=10;fontColor=#FF3333;labelBorderColor=none;labelBackgroundColor=default;" parent="1" vertex="1">
          <mxGeometry x="1500" y="2892" width="40" height="30" as="geometry" />
        </mxCell>
        <mxCell id="oMi_tc-Ln19UIqllwzs8-152" value="DN" style="text;html=1;align=center;verticalAlign=middle;resizable=0;points=[];autosize=1;strokeColor=none;fillColor=none;fontFamily=Helvetica;fontSize=10;fontColor=#FF3333;labelBorderColor=none;labelBackgroundColor=default;" parent="1" vertex="1">
          <mxGeometry x="1500" y="2865" width="40" height="30" as="geometry" />
        </mxCell>
        <mxCell id="oMi_tc-Ln19UIqllwzs8-153" style="rounded=0;orthogonalLoop=1;jettySize=auto;html=1;exitX=1;exitY=0.5;exitDx=0;exitDy=0;fontFamily=Helvetica;fontSize=12;fontColor=default;labelBorderColor=default;labelBackgroundColor=default;entryX=-0.003;entryY=1.004;entryDx=0;entryDy=0;entryPerimeter=0;" parent="1" source="oMi_tc-Ln19UIqllwzs8-53" target="oMi_tc-Ln19UIqllwzs8-137" edge="1">
          <mxGeometry relative="1" as="geometry">
            <mxPoint x="1270" y="2960" as="targetPoint" />
          </mxGeometry>
        </mxCell>
        <mxCell id="oMi_tc-Ln19UIqllwzs8-154" value="&lt;font style=&quot;font-size: 16px;&quot;&gt;EP OPS&lt;/font&gt;" style="swimlane;childLayout=stackLayout;horizontal=1;startSize=50;horizontalStack=0;rounded=1;fontSize=14;fontStyle=0;strokeWidth=2;resizeParent=0;resizeLast=1;shadow=0;dashed=0;align=center;arcSize=4;whiteSpace=wrap;html=1;verticalAlign=middle;spacingLeft=8;fontFamily=Helvetica;fontColor=default;labelBorderColor=default;labelBackgroundColor=default;fillColor=none;gradientColor=none;strokeColor=default;" parent="1" vertex="1">
          <mxGeometry x="1510" y="2680" width="180" height="150" as="geometry">
            <mxRectangle x="1500" y="2630" width="80" height="50" as="alternateBounds" />
          </mxGeometry>
        </mxCell>
        <mxCell id="oMi_tc-Ln19UIqllwzs8-155" value="+Attribute1&amp;nbsp; &amp;nbsp; &amp;nbsp; &amp;nbsp; &amp;nbsp; &amp;nbsp; &amp;nbsp; &amp;nbsp; &amp;nbsp; &amp;nbsp; &amp;nbsp; &amp;nbsp; &amp;nbsp; &amp;nbsp;&amp;nbsp;&lt;br&gt;+Attribute2&lt;br&gt;+Attribute3&lt;div&gt;&lt;br&gt;&lt;/div&gt;&lt;div&gt;&lt;br&gt;&lt;/div&gt;&lt;div&gt;&lt;br&gt;&lt;/div&gt;" style="align=left;strokeColor=none;fillColor=none;spacingLeft=4;fontSize=12;verticalAlign=top;resizable=0;rotatable=0;part=1;html=1;fontFamily=Helvetica;fontColor=default;labelBorderColor=default;labelBackgroundColor=default;" parent="oMi_tc-Ln19UIqllwzs8-154" vertex="1">
          <mxGeometry y="50" width="180" height="100" as="geometry" />
        </mxCell>
        <mxCell id="oMi_tc-Ln19UIqllwzs8-156" style="rounded=0;orthogonalLoop=1;jettySize=auto;html=1;exitX=1;exitY=0.5;exitDx=0;exitDy=0;entryX=0;entryY=1;entryDx=0;entryDy=0;fontFamily=Helvetica;fontSize=12;fontColor=default;labelBorderColor=default;labelBackgroundColor=default;" parent="1" source="oMi_tc-Ln19UIqllwzs8-131" target="oMi_tc-Ln19UIqllwzs8-155" edge="1">
          <mxGeometry relative="1" as="geometry" />
        </mxCell>
        <mxCell id="oMi_tc-Ln19UIqllwzs8-159" value="&lt;div style=&quot;color: #d4d4d4;background-color: #1e1e1e;font-family: Consolas, &#39;Courier New&#39;, monospace;font-weight: normal;font-size: 14px;line-height: 19px;white-space: pre;&quot;&gt;&lt;div&gt;&lt;span style=&quot;color: #569cd6;&quot;&gt;static&lt;/span&gt;&lt;span style=&quot;color: #d4d4d4;&quot;&gt; &lt;/span&gt;&lt;span style=&quot;color: #569cd6;&quot;&gt;inline&lt;/span&gt;&lt;span style=&quot;color: #d4d4d4;&quot;&gt; &lt;/span&gt;&lt;span style=&quot;color: #569cd6;&quot;&gt;int&lt;/span&gt;&lt;span style=&quot;color: #d4d4d4;&quot;&gt; &lt;/span&gt;&lt;span style=&quot;color: #c8c8c8;&quot;&gt;usb_gadget_udc_start&lt;/span&gt;&lt;span style=&quot;color: #d4d4d4;&quot;&gt;(&lt;/span&gt;&lt;span style=&quot;color: #569cd6;&quot;&gt;struct&lt;/span&gt;&lt;span style=&quot;color: #d4d4d4;&quot;&gt; usb_udc *&lt;/span&gt;&lt;span style=&quot;color: #7f7f7f;&quot;&gt;udc&lt;/span&gt;&lt;span style=&quot;color: #d4d4d4;&quot;&gt;)&lt;/span&gt;&lt;/div&gt;&lt;div&gt;&lt;span style=&quot;color: #d4d4d4;&quot;&gt;{&lt;/span&gt;&lt;/div&gt;&lt;div&gt;&lt;span style=&quot;color: #d4d4d4;&quot;&gt;&amp;nbsp; &amp;nbsp; &lt;/span&gt;&lt;span style=&quot;color: #569cd6;&quot;&gt;return&lt;/span&gt;&lt;span style=&quot;color: #d4d4d4;&quot;&gt; &lt;/span&gt;&lt;span style=&quot;color: #c8c8c8;&quot;&gt;udc&lt;/span&gt;&lt;span style=&quot;color: #d4d4d4;&quot;&gt;-&amp;gt;&lt;/span&gt;&lt;span style=&quot;color: #c8c8c8;&quot;&gt;gadget&lt;/span&gt;&lt;span style=&quot;color: #d4d4d4;&quot;&gt;-&amp;gt;&lt;/span&gt;&lt;span style=&quot;color: #c8c8c8;&quot;&gt;ops&lt;/span&gt;&lt;span style=&quot;color: #d4d4d4;&quot;&gt;-&amp;gt;&lt;/span&gt;&lt;span style=&quot;color: #c8c8c8;&quot;&gt;udc_start&lt;/span&gt;&lt;span style=&quot;color: #d4d4d4;&quot;&gt;(&lt;/span&gt;&lt;span style=&quot;color: #c8c8c8;&quot;&gt;udc&lt;/span&gt;&lt;span style=&quot;color: #d4d4d4;&quot;&gt;-&amp;gt;&lt;/span&gt;&lt;span style=&quot;color: #c8c8c8;&quot;&gt;gadget&lt;/span&gt;&lt;span style=&quot;color: #d4d4d4;&quot;&gt;, &lt;/span&gt;&lt;span style=&quot;color: #c8c8c8;&quot;&gt;udc&lt;/span&gt;&lt;span style=&quot;color: #d4d4d4;&quot;&gt;-&amp;gt;&lt;/span&gt;&lt;span style=&quot;color: #c8c8c8;&quot;&gt;driver&lt;/span&gt;&lt;span style=&quot;color: #d4d4d4;&quot;&gt;);&lt;/span&gt;&lt;/div&gt;&lt;div&gt;&lt;span style=&quot;color: #d4d4d4;&quot;&gt;}&lt;/span&gt;&lt;/div&gt;&lt;/div&gt;" style="text;whiteSpace=wrap;html=1;fontFamily=Helvetica;fontSize=12;fontColor=default;labelBorderColor=default;labelBackgroundColor=default;" parent="1" vertex="1">
          <mxGeometry x="1630" y="3280" width="530" height="100" as="geometry" />
        </mxCell>
        <mxCell id="oMi_tc-Ln19UIqllwzs8-162" value="&lt;span style=&quot;color: rgb(255, 0, 0); font-family: Helvetica; font-size: 22px; font-style: normal; font-variant-ligatures: normal; font-variant-caps: normal; font-weight: 400; letter-spacing: normal; orphans: 2; text-align: center; text-indent: 0px; text-transform: none; widows: 2; word-spacing: 0px; -webkit-text-stroke-width: 0px; white-space: nowrap; background-color: rgb(255, 255, 255); text-decoration-thickness: initial; text-decoration-style: initial; text-decoration-color: initial; display: inline !important; float: none;&quot;&gt;udc_start&lt;/span&gt;" style="text;whiteSpace=wrap;html=1;fontFamily=Helvetica;fontSize=12;fontColor=default;labelBorderColor=default;labelBackgroundColor=default;" parent="1" vertex="1">
          <mxGeometry x="1480" y="3290" width="110" height="50" as="geometry" />
        </mxCell>
        <mxCell id="oMi_tc-Ln19UIqllwzs8-164" value="&lt;div style=&quot;color: #d4d4d4;background-color: #1e1e1e;font-family: Consolas, &#39;Courier New&#39;, monospace;font-weight: normal;font-size: 14px;line-height: 19px;white-space: pre;&quot;&gt;&lt;div&gt;&lt;span style=&quot;color: #569cd6;&quot;&gt;static&lt;/span&gt;&lt;span style=&quot;color: #d4d4d4;&quot;&gt; &lt;/span&gt;&lt;span style=&quot;color: #569cd6;&quot;&gt;const&lt;/span&gt;&lt;span style=&quot;color: #d4d4d4;&quot;&gt; &lt;/span&gt;&lt;span style=&quot;color: #569cd6;&quot;&gt;struct&lt;/span&gt;&lt;span style=&quot;color: #d4d4d4;&quot;&gt; usb_gadget_ops crg_gadget_ops = {&lt;/span&gt;&lt;/div&gt;&lt;div&gt;&lt;span style=&quot;color: #d4d4d4;&quot;&gt;&amp;nbsp; &amp;nbsp; .get_frame &amp;nbsp; &amp;nbsp; &amp;nbsp;= crg_gadget_get_frame,&lt;/span&gt;&lt;/div&gt;&lt;div&gt;&lt;span style=&quot;color: #d4d4d4;&quot;&gt;&amp;nbsp; &amp;nbsp; .wakeup &amp;nbsp; &amp;nbsp; &amp;nbsp; &amp;nbsp; = crg_gadget_wakeup,&lt;/span&gt;&lt;/div&gt;&lt;div&gt;&lt;span style=&quot;color: #d4d4d4;&quot;&gt;&amp;nbsp; &amp;nbsp; .set_selfpowered &amp;nbsp; &amp;nbsp;= crg_gadget_set_selfpowered,&lt;/span&gt;&lt;/div&gt;&lt;div&gt;&lt;span style=&quot;color: #d4d4d4;&quot;&gt;&amp;nbsp; &amp;nbsp; .pullup &amp;nbsp; &amp;nbsp; &amp;nbsp; &amp;nbsp; = crg_gadget_pullup,&lt;/span&gt;&lt;/div&gt;&lt;div&gt;&lt;span style=&quot;color: #d4d4d4;&quot;&gt;&amp;nbsp; &amp;nbsp; .udc_start &amp;nbsp; &amp;nbsp; &amp;nbsp;= crg_gadget_start,&lt;/span&gt;&lt;/div&gt;&lt;div&gt;&lt;span style=&quot;color: #d4d4d4;&quot;&gt;&amp;nbsp; &amp;nbsp; .udc_stop &amp;nbsp; &amp;nbsp; &amp;nbsp; = crg_gadget_stop,&lt;/span&gt;&lt;/div&gt;&lt;div&gt;&lt;span style=&quot;color: #d4d4d4;&quot;&gt;};&lt;/span&gt;&lt;/div&gt;&lt;/div&gt;" style="text;whiteSpace=wrap;html=1;fontFamily=Helvetica;fontSize=12;fontColor=default;labelBorderColor=default;labelBackgroundColor=default;" parent="1" vertex="1">
          <mxGeometry x="-410" y="1970" width="440" height="160" as="geometry" />
        </mxCell>
        <mxCell id="oMi_tc-Ln19UIqllwzs8-167" value="gadget ops" style="edgeLabel;html=1;align=center;verticalAlign=middle;resizable=0;points=[];spacingLeft=8;fontFamily=Helvetica;fontSize=18;fontColor=#FF0000;labelBorderColor=none;labelBackgroundColor=default;fillColor=none;gradientColor=none;" parent="1" vertex="1" connectable="0">
          <mxGeometry x="39.99695397296591" y="2179.9969614945717" as="geometry">
            <mxPoint x="-243" y="-10" as="offset" />
          </mxGeometry>
        </mxCell>
        <mxCell id="Qq1oJCVKSSWmtxD43wL0-102" value="" style="rounded=0;whiteSpace=wrap;html=1;" vertex="1" parent="1">
          <mxGeometry x="1930" y="2390" width="130" height="220" as="geometry" />
        </mxCell>
        <mxCell id="Qq1oJCVKSSWmtxD43wL0-103" value="" style="shape=table;startSize=0;container=1;collapsible=0;childLayout=tableLayout;fixedRows=1;rowLines=0;fontStyle=0;strokeColor=#d6b656;fontSize=16;align=center;verticalAlign=middle;spacingLeft=8;fontFamily=Helvetica;labelBorderColor=none;labelBackgroundColor=#CCFFFF;fillColor=#fff2cc;" vertex="1" parent="1">
          <mxGeometry x="1984" y="2390" width="76" height="60" as="geometry" />
        </mxCell>
        <mxCell id="Qq1oJCVKSSWmtxD43wL0-104" value="" style="shape=tableRow;horizontal=0;startSize=0;swimlaneHead=0;swimlaneBody=0;top=0;left=0;bottom=0;right=0;collapsible=0;dropTarget=0;fillColor=#ffe6cc;points=[[0,0.5],[1,0.5]];portConstraint=eastwest;strokeColor=#d79b00;fontSize=16;align=left;verticalAlign=middle;spacingLeft=8;fontFamily=Helvetica;labelBorderColor=default;labelBackgroundColor=default;" vertex="1" parent="Qq1oJCVKSSWmtxD43wL0-103">
          <mxGeometry width="76" height="30" as="geometry" />
        </mxCell>
        <mxCell id="Qq1oJCVKSSWmtxD43wL0-105" value="&lt;font style=&quot;font-size: 10px;&quot;&gt;ADB&lt;/font&gt;" style="shape=partialRectangle;html=1;whiteSpace=wrap;connectable=0;fillColor=none;top=0;left=0;bottom=0;right=0;overflow=hidden;pointerEvents=1;strokeColor=inherit;fontSize=20;align=left;verticalAlign=middle;spacingLeft=8;fontFamily=Helvetica;fontColor=default;labelBorderColor=none;labelBackgroundColor=#99CCFF;" vertex="1" parent="Qq1oJCVKSSWmtxD43wL0-104">
          <mxGeometry width="25" height="30" as="geometry">
            <mxRectangle width="25" height="30" as="alternateBounds" />
          </mxGeometry>
        </mxCell>
        <mxCell id="Qq1oJCVKSSWmtxD43wL0-106" value="EP &amp;lt;&amp;nbsp;" style="shape=partialRectangle;html=1;whiteSpace=wrap;connectable=0;fillColor=#fff2cc;top=0;left=0;bottom=0;right=0;align=left;spacingLeft=6;overflow=hidden;strokeColor=#d6b656;fontSize=16;verticalAlign=middle;fontFamily=Helvetica;labelBorderColor=default;labelBackgroundColor=#CCFFE6;" vertex="1" parent="Qq1oJCVKSSWmtxD43wL0-104">
          <mxGeometry x="25" width="51" height="30" as="geometry">
            <mxRectangle width="51" height="30" as="alternateBounds" />
          </mxGeometry>
        </mxCell>
        <mxCell id="Qq1oJCVKSSWmtxD43wL0-107" value="" style="shape=tableRow;horizontal=0;startSize=0;swimlaneHead=0;swimlaneBody=0;top=0;left=0;bottom=0;right=0;collapsible=0;dropTarget=0;fillColor=none;points=[[0,0.5],[1,0.5]];portConstraint=eastwest;strokeColor=inherit;fontSize=16;align=left;verticalAlign=middle;spacingLeft=8;fontFamily=Helvetica;fontColor=default;labelBorderColor=default;labelBackgroundColor=default;" vertex="1" parent="Qq1oJCVKSSWmtxD43wL0-103">
          <mxGeometry y="30" width="76" height="30" as="geometry" />
        </mxCell>
        <mxCell id="Qq1oJCVKSSWmtxD43wL0-108" value="" style="shape=partialRectangle;html=1;whiteSpace=wrap;connectable=0;fillColor=none;top=0;left=0;bottom=0;right=0;overflow=hidden;strokeColor=inherit;fontSize=16;align=left;verticalAlign=middle;spacingLeft=8;fontFamily=Helvetica;fontColor=default;labelBorderColor=none;labelBackgroundColor=default;" vertex="1" parent="Qq1oJCVKSSWmtxD43wL0-107">
          <mxGeometry width="25" height="30" as="geometry">
            <mxRectangle width="25" height="30" as="alternateBounds" />
          </mxGeometry>
        </mxCell>
        <mxCell id="Qq1oJCVKSSWmtxD43wL0-109" value="EP &amp;gt;&amp;nbsp;" style="shape=partialRectangle;html=1;whiteSpace=wrap;connectable=0;fillColor=#fff2cc;top=0;left=0;bottom=0;right=0;align=left;spacingLeft=6;overflow=hidden;strokeColor=#d6b656;fontSize=16;verticalAlign=middle;fontFamily=Helvetica;labelBorderColor=default;labelBackgroundColor=#ccffe6;" vertex="1" parent="Qq1oJCVKSSWmtxD43wL0-107">
          <mxGeometry x="25" width="51" height="30" as="geometry">
            <mxRectangle width="51" height="30" as="alternateBounds" />
          </mxGeometry>
        </mxCell>
        <mxCell id="Qq1oJCVKSSWmtxD43wL0-110" value="INT&lt;br&gt;ADB" style="rounded=0;whiteSpace=wrap;html=1;fillColor=#fff2cc;strokeColor=#d6b656;" vertex="1" parent="1">
          <mxGeometry x="1980" y="2390" width="35" height="60" as="geometry" />
        </mxCell>
        <mxCell id="Qq1oJCVKSSWmtxD43wL0-111" value="" style="shape=table;startSize=0;container=1;collapsible=0;childLayout=tableLayout;fixedRows=1;rowLines=0;fontStyle=0;strokeColor=default;fontSize=16;align=center;verticalAlign=middle;spacingLeft=8;fontFamily=Helvetica;fontColor=default;labelBorderColor=none;labelBackgroundColor=#CCFFFF;fillColor=none;gradientColor=none;" vertex="1" parent="1">
          <mxGeometry x="1984" y="2450" width="76" height="60" as="geometry" />
        </mxCell>
        <mxCell id="Qq1oJCVKSSWmtxD43wL0-112" value="" style="shape=tableRow;horizontal=0;startSize=0;swimlaneHead=0;swimlaneBody=0;top=0;left=0;bottom=0;right=0;collapsible=0;dropTarget=0;fillColor=none;points=[[0,0.5],[1,0.5]];portConstraint=eastwest;strokeColor=inherit;fontSize=16;align=left;verticalAlign=middle;spacingLeft=8;fontFamily=Helvetica;fontColor=default;labelBorderColor=default;labelBackgroundColor=default;" vertex="1" parent="Qq1oJCVKSSWmtxD43wL0-111">
          <mxGeometry width="76" height="30" as="geometry" />
        </mxCell>
        <mxCell id="Qq1oJCVKSSWmtxD43wL0-113" value="&lt;font style=&quot;font-size: 10px;&quot;&gt;ADB&lt;/font&gt;" style="shape=partialRectangle;html=1;whiteSpace=wrap;connectable=0;fillColor=none;top=0;left=0;bottom=0;right=0;overflow=hidden;pointerEvents=1;strokeColor=inherit;fontSize=20;align=left;verticalAlign=middle;spacingLeft=8;fontFamily=Helvetica;fontColor=default;labelBorderColor=none;labelBackgroundColor=#99CCFF;" vertex="1" parent="Qq1oJCVKSSWmtxD43wL0-112">
          <mxGeometry width="25" height="30" as="geometry">
            <mxRectangle width="25" height="30" as="alternateBounds" />
          </mxGeometry>
        </mxCell>
        <mxCell id="Qq1oJCVKSSWmtxD43wL0-114" value="EP &amp;lt;&amp;nbsp;" style="shape=partialRectangle;html=1;whiteSpace=wrap;connectable=0;fillColor=none;top=0;left=0;bottom=0;right=0;align=left;spacingLeft=6;overflow=hidden;strokeColor=inherit;fontSize=16;verticalAlign=middle;fontFamily=Helvetica;fontColor=default;labelBorderColor=default;labelBackgroundColor=#CCFFE6;" vertex="1" parent="Qq1oJCVKSSWmtxD43wL0-112">
          <mxGeometry x="25" width="51" height="30" as="geometry">
            <mxRectangle width="51" height="30" as="alternateBounds" />
          </mxGeometry>
        </mxCell>
        <mxCell id="Qq1oJCVKSSWmtxD43wL0-115" value="" style="shape=tableRow;horizontal=0;startSize=0;swimlaneHead=0;swimlaneBody=0;top=0;left=0;bottom=0;right=0;collapsible=0;dropTarget=0;fillColor=none;points=[[0,0.5],[1,0.5]];portConstraint=eastwest;strokeColor=inherit;fontSize=16;align=left;verticalAlign=middle;spacingLeft=8;fontFamily=Helvetica;fontColor=default;labelBorderColor=default;labelBackgroundColor=default;" vertex="1" parent="Qq1oJCVKSSWmtxD43wL0-111">
          <mxGeometry y="30" width="76" height="30" as="geometry" />
        </mxCell>
        <mxCell id="Qq1oJCVKSSWmtxD43wL0-116" value="" style="shape=partialRectangle;html=1;whiteSpace=wrap;connectable=0;fillColor=none;top=0;left=0;bottom=0;right=0;overflow=hidden;strokeColor=inherit;fontSize=16;align=left;verticalAlign=middle;spacingLeft=8;fontFamily=Helvetica;fontColor=default;labelBorderColor=none;labelBackgroundColor=default;" vertex="1" parent="Qq1oJCVKSSWmtxD43wL0-115">
          <mxGeometry width="25" height="30" as="geometry">
            <mxRectangle width="25" height="30" as="alternateBounds" />
          </mxGeometry>
        </mxCell>
        <mxCell id="Qq1oJCVKSSWmtxD43wL0-117" value="EP &amp;gt;&amp;nbsp;" style="shape=partialRectangle;html=1;whiteSpace=wrap;connectable=0;fillColor=none;top=0;left=0;bottom=0;right=0;align=left;spacingLeft=6;overflow=hidden;strokeColor=inherit;fontSize=16;verticalAlign=middle;fontFamily=Helvetica;fontColor=default;labelBorderColor=default;labelBackgroundColor=#ccffe6;" vertex="1" parent="Qq1oJCVKSSWmtxD43wL0-115">
          <mxGeometry x="25" width="51" height="30" as="geometry">
            <mxRectangle width="51" height="30" as="alternateBounds" />
          </mxGeometry>
        </mxCell>
        <mxCell id="Qq1oJCVKSSWmtxD43wL0-118" value="INT&lt;br&gt;F U" style="rounded=0;whiteSpace=wrap;html=1;fillColor=#dae8fc;strokeColor=#6c8ebf;" vertex="1" parent="1">
          <mxGeometry x="1980" y="2450" width="35" height="60" as="geometry" />
        </mxCell>
        <mxCell id="Qq1oJCVKSSWmtxD43wL0-119" value="" style="shape=table;startSize=0;container=1;collapsible=0;childLayout=tableLayout;fixedRows=1;rowLines=0;fontStyle=0;strokeColor=default;fontSize=16;align=center;verticalAlign=middle;spacingLeft=8;fontFamily=Helvetica;fontColor=default;labelBorderColor=none;labelBackgroundColor=#CCFFFF;fillColor=none;gradientColor=none;" vertex="1" parent="1">
          <mxGeometry x="1984" y="2510" width="76" height="50" as="geometry" />
        </mxCell>
        <mxCell id="Qq1oJCVKSSWmtxD43wL0-120" value="" style="shape=tableRow;horizontal=0;startSize=0;swimlaneHead=0;swimlaneBody=0;top=0;left=0;bottom=0;right=0;collapsible=0;dropTarget=0;fillColor=none;points=[[0,0.5],[1,0.5]];portConstraint=eastwest;strokeColor=inherit;fontSize=16;align=left;verticalAlign=middle;spacingLeft=8;fontFamily=Helvetica;fontColor=default;labelBorderColor=default;labelBackgroundColor=default;" vertex="1" parent="Qq1oJCVKSSWmtxD43wL0-119">
          <mxGeometry width="76" height="30" as="geometry" />
        </mxCell>
        <mxCell id="Qq1oJCVKSSWmtxD43wL0-121" value="&lt;font style=&quot;font-size: 10px;&quot;&gt;ADB&lt;/font&gt;" style="shape=partialRectangle;html=1;whiteSpace=wrap;connectable=0;fillColor=none;top=0;left=0;bottom=0;right=0;overflow=hidden;pointerEvents=1;strokeColor=inherit;fontSize=20;align=left;verticalAlign=middle;spacingLeft=8;fontFamily=Helvetica;fontColor=default;labelBorderColor=none;labelBackgroundColor=#99CCFF;" vertex="1" parent="Qq1oJCVKSSWmtxD43wL0-120">
          <mxGeometry width="25" height="30" as="geometry">
            <mxRectangle width="25" height="30" as="alternateBounds" />
          </mxGeometry>
        </mxCell>
        <mxCell id="Qq1oJCVKSSWmtxD43wL0-122" value="EP &amp;lt;&amp;nbsp;" style="shape=partialRectangle;html=1;whiteSpace=wrap;connectable=0;fillColor=none;top=0;left=0;bottom=0;right=0;align=left;spacingLeft=6;overflow=hidden;strokeColor=inherit;fontSize=16;verticalAlign=middle;fontFamily=Helvetica;fontColor=default;labelBorderColor=default;labelBackgroundColor=#CCFFE6;" vertex="1" parent="Qq1oJCVKSSWmtxD43wL0-120">
          <mxGeometry x="25" width="51" height="30" as="geometry">
            <mxRectangle width="51" height="30" as="alternateBounds" />
          </mxGeometry>
        </mxCell>
        <mxCell id="Qq1oJCVKSSWmtxD43wL0-123" value="" style="shape=tableRow;horizontal=0;startSize=0;swimlaneHead=0;swimlaneBody=0;top=0;left=0;bottom=0;right=0;collapsible=0;dropTarget=0;fillColor=none;points=[[0,0.5],[1,0.5]];portConstraint=eastwest;strokeColor=inherit;fontSize=16;align=left;verticalAlign=middle;spacingLeft=8;fontFamily=Helvetica;fontColor=default;labelBorderColor=default;labelBackgroundColor=default;" vertex="1" parent="Qq1oJCVKSSWmtxD43wL0-119">
          <mxGeometry y="30" width="76" height="20" as="geometry" />
        </mxCell>
        <mxCell id="Qq1oJCVKSSWmtxD43wL0-124" value="" style="shape=partialRectangle;html=1;whiteSpace=wrap;connectable=0;fillColor=none;top=0;left=0;bottom=0;right=0;overflow=hidden;strokeColor=inherit;fontSize=16;align=left;verticalAlign=middle;spacingLeft=8;fontFamily=Helvetica;fontColor=default;labelBorderColor=none;labelBackgroundColor=default;" vertex="1" parent="Qq1oJCVKSSWmtxD43wL0-123">
          <mxGeometry width="25" height="20" as="geometry">
            <mxRectangle width="25" height="20" as="alternateBounds" />
          </mxGeometry>
        </mxCell>
        <mxCell id="Qq1oJCVKSSWmtxD43wL0-125" value="" style="shape=partialRectangle;html=1;whiteSpace=wrap;connectable=0;fillColor=none;top=0;left=0;bottom=0;right=0;align=left;spacingLeft=6;overflow=hidden;strokeColor=inherit;fontSize=16;verticalAlign=middle;fontFamily=Helvetica;fontColor=default;labelBorderColor=default;labelBackgroundColor=#ccffe6;" vertex="1" parent="Qq1oJCVKSSWmtxD43wL0-123">
          <mxGeometry x="25" width="51" height="20" as="geometry">
            <mxRectangle width="51" height="20" as="alternateBounds" />
          </mxGeometry>
        </mxCell>
        <mxCell id="Qq1oJCVKSSWmtxD43wL0-126" value="INT&lt;br&gt;UAC&lt;br&gt;IN" style="rounded=0;whiteSpace=wrap;html=1;fillColor=#d5e8d4;strokeColor=#82b366;" vertex="1" parent="1">
          <mxGeometry x="1980" y="2510" width="35" height="50" as="geometry" />
        </mxCell>
        <mxCell id="Qq1oJCVKSSWmtxD43wL0-127" value="" style="shape=table;startSize=0;container=1;collapsible=0;childLayout=tableLayout;fixedRows=1;rowLines=0;fontStyle=0;strokeColor=default;fontSize=16;align=center;verticalAlign=middle;spacingLeft=8;fontFamily=Helvetica;fontColor=default;labelBorderColor=none;labelBackgroundColor=#CCFFFF;fillColor=none;gradientColor=none;" vertex="1" parent="1">
          <mxGeometry x="1984" y="2560" width="76" height="50" as="geometry" />
        </mxCell>
        <mxCell id="Qq1oJCVKSSWmtxD43wL0-128" value="" style="shape=tableRow;horizontal=0;startSize=0;swimlaneHead=0;swimlaneBody=0;top=0;left=0;bottom=0;right=0;collapsible=0;dropTarget=0;fillColor=none;points=[[0,0.5],[1,0.5]];portConstraint=eastwest;strokeColor=inherit;fontSize=16;align=left;verticalAlign=middle;spacingLeft=8;fontFamily=Helvetica;fontColor=default;labelBorderColor=default;labelBackgroundColor=default;" vertex="1" parent="Qq1oJCVKSSWmtxD43wL0-127">
          <mxGeometry width="76" height="30" as="geometry" />
        </mxCell>
        <mxCell id="Qq1oJCVKSSWmtxD43wL0-129" value="&lt;font style=&quot;font-size: 10px;&quot;&gt;ADB&lt;/font&gt;" style="shape=partialRectangle;html=1;whiteSpace=wrap;connectable=0;fillColor=none;top=0;left=0;bottom=0;right=0;overflow=hidden;pointerEvents=1;strokeColor=inherit;fontSize=20;align=left;verticalAlign=middle;spacingLeft=8;fontFamily=Helvetica;fontColor=default;labelBorderColor=none;labelBackgroundColor=#99CCFF;" vertex="1" parent="Qq1oJCVKSSWmtxD43wL0-128">
          <mxGeometry width="25" height="30" as="geometry">
            <mxRectangle width="25" height="30" as="alternateBounds" />
          </mxGeometry>
        </mxCell>
        <mxCell id="Qq1oJCVKSSWmtxD43wL0-130" value="EP &amp;gt;&amp;nbsp;" style="shape=partialRectangle;html=1;whiteSpace=wrap;connectable=0;fillColor=none;top=0;left=0;bottom=0;right=0;align=left;spacingLeft=6;overflow=hidden;strokeColor=inherit;fontSize=16;verticalAlign=middle;fontFamily=Helvetica;fontColor=default;labelBorderColor=default;labelBackgroundColor=#CCFFE6;" vertex="1" parent="Qq1oJCVKSSWmtxD43wL0-128">
          <mxGeometry x="25" width="51" height="30" as="geometry">
            <mxRectangle width="51" height="30" as="alternateBounds" />
          </mxGeometry>
        </mxCell>
        <mxCell id="Qq1oJCVKSSWmtxD43wL0-131" value="" style="shape=tableRow;horizontal=0;startSize=0;swimlaneHead=0;swimlaneBody=0;top=0;left=0;bottom=0;right=0;collapsible=0;dropTarget=0;fillColor=none;points=[[0,0.5],[1,0.5]];portConstraint=eastwest;strokeColor=inherit;fontSize=16;align=left;verticalAlign=middle;spacingLeft=8;fontFamily=Helvetica;fontColor=default;labelBorderColor=default;labelBackgroundColor=default;" vertex="1" parent="Qq1oJCVKSSWmtxD43wL0-127">
          <mxGeometry y="30" width="76" height="20" as="geometry" />
        </mxCell>
        <mxCell id="Qq1oJCVKSSWmtxD43wL0-132" value="" style="shape=partialRectangle;html=1;whiteSpace=wrap;connectable=0;fillColor=none;top=0;left=0;bottom=0;right=0;overflow=hidden;strokeColor=inherit;fontSize=16;align=left;verticalAlign=middle;spacingLeft=8;fontFamily=Helvetica;fontColor=default;labelBorderColor=none;labelBackgroundColor=default;" vertex="1" parent="Qq1oJCVKSSWmtxD43wL0-131">
          <mxGeometry width="25" height="20" as="geometry">
            <mxRectangle width="25" height="20" as="alternateBounds" />
          </mxGeometry>
        </mxCell>
        <mxCell id="Qq1oJCVKSSWmtxD43wL0-133" value="" style="shape=partialRectangle;html=1;whiteSpace=wrap;connectable=0;fillColor=none;top=0;left=0;bottom=0;right=0;align=left;spacingLeft=6;overflow=hidden;strokeColor=inherit;fontSize=16;verticalAlign=middle;fontFamily=Helvetica;fontColor=default;labelBorderColor=default;labelBackgroundColor=#ccffe6;" vertex="1" parent="Qq1oJCVKSSWmtxD43wL0-131">
          <mxGeometry x="25" width="51" height="20" as="geometry">
            <mxRectangle width="51" height="20" as="alternateBounds" />
          </mxGeometry>
        </mxCell>
        <mxCell id="Qq1oJCVKSSWmtxD43wL0-134" value="INT&lt;br&gt;UAC&lt;br&gt;OUT" style="rounded=0;whiteSpace=wrap;html=1;fillColor=#d5e8d4;strokeColor=#82b366;" vertex="1" parent="1">
          <mxGeometry x="1980" y="2560" width="35" height="50" as="geometry" />
        </mxCell>
        <mxCell id="Qq1oJCVKSSWmtxD43wL0-135" value="USB&lt;br&gt;Device" style="text;html=1;align=center;verticalAlign=middle;whiteSpace=wrap;rounded=0;" vertex="1" parent="1">
          <mxGeometry x="1930" y="2420" width="50" height="150" as="geometry" />
        </mxCell>
        <mxCell id="Qq1oJCVKSSWmtxD43wL0-136" value="&#xa;&lt;div style=&quot;color: #d4d4d4;background-color: #1e1e1e;font-family: Consolas, &#39;Courier New&#39;, monospace;font-weight: normal;font-size: 14px;line-height: 19px;white-space: pre;&quot;&gt;&lt;div&gt;&lt;span style=&quot;color: #c8c8c8;&quot;&gt;usb_ep_autoconfig&lt;/span&gt;&lt;/div&gt;&lt;/div&gt;&#xa;&#xa;" style="rounded=1;whiteSpace=wrap;html=1;fontSize=16;startSize=30;fontStyle=0;spacingLeft=8;labelBorderColor=none;labelBackgroundColor=#CCFFFF;" vertex="1" parent="1">
          <mxGeometry x="1295" y="2650" width="120" height="60" as="geometry" />
        </mxCell>
        <mxCell id="Qq1oJCVKSSWmtxD43wL0-174" style="edgeStyle=orthogonalEdgeStyle;rounded=0;orthogonalLoop=1;jettySize=auto;html=1;exitX=1;exitY=0.25;exitDx=0;exitDy=0;entryX=0;entryY=0.5;entryDx=0;entryDy=0;" edge="1" parent="1" source="Qq1oJCVKSSWmtxD43wL0-171" target="Qq1oJCVKSSWmtxD43wL0-181">
          <mxGeometry relative="1" as="geometry">
            <mxPoint x="-1600" y="4642.470588235295" as="targetPoint" />
            <Array as="points">
              <mxPoint x="-1770" y="4642" />
              <mxPoint x="-1620" y="4642" />
              <mxPoint x="-1620" y="4608" />
            </Array>
          </mxGeometry>
        </mxCell>
        <mxCell id="Qq1oJCVKSSWmtxD43wL0-180" value="AC_INTF" style="edgeLabel;html=1;align=center;verticalAlign=middle;resizable=0;points=[];" vertex="1" connectable="0" parent="Qq1oJCVKSSWmtxD43wL0-174">
          <mxGeometry x="0.0414" y="-1" relative="1" as="geometry">
            <mxPoint x="-3" y="-1" as="offset" />
          </mxGeometry>
        </mxCell>
        <mxCell id="Qq1oJCVKSSWmtxD43wL0-193" style="edgeStyle=orthogonalEdgeStyle;rounded=0;orthogonalLoop=1;jettySize=auto;html=1;exitX=1;exitY=0.75;exitDx=0;exitDy=0;entryX=0;entryY=0.5;entryDx=0;entryDy=0;" edge="1" parent="1" source="Qq1oJCVKSSWmtxD43wL0-171" target="Qq1oJCVKSSWmtxD43wL0-192">
          <mxGeometry relative="1" as="geometry">
            <Array as="points">
              <mxPoint x="-1770" y="4802" />
            </Array>
          </mxGeometry>
        </mxCell>
        <mxCell id="Qq1oJCVKSSWmtxD43wL0-194" value="AS_IN_INTF" style="edgeLabel;html=1;align=center;verticalAlign=middle;resizable=0;points=[];" vertex="1" connectable="0" parent="Qq1oJCVKSSWmtxD43wL0-193">
          <mxGeometry x="-0.0361" y="-3" relative="1" as="geometry">
            <mxPoint x="15" y="-5" as="offset" />
          </mxGeometry>
        </mxCell>
        <mxCell id="Qq1oJCVKSSWmtxD43wL0-171" value="UAC-USB" style="whiteSpace=wrap;html=1;align=center;verticalAlign=middle;spacingLeft=8;fontFamily=Helvetica;fontSize=24;labelBorderColor=none;labelBackgroundColor=default;fillColor=#ffe6cc;horizontal=1;strokeColor=#d79b00;" vertex="1" parent="1">
          <mxGeometry x="-2000" y="4630" width="230" height="240" as="geometry" />
        </mxCell>
        <mxCell id="Qq1oJCVKSSWmtxD43wL0-220" style="edgeStyle=orthogonalEdgeStyle;rounded=0;orthogonalLoop=1;jettySize=auto;html=1;exitX=0;exitY=0.25;exitDx=0;exitDy=0;" edge="1" parent="1" source="Qq1oJCVKSSWmtxD43wL0-173" target="Qq1oJCVKSSWmtxD43wL0-183">
          <mxGeometry relative="1" as="geometry" />
        </mxCell>
        <mxCell id="Qq1oJCVKSSWmtxD43wL0-222" style="edgeStyle=orthogonalEdgeStyle;rounded=0;orthogonalLoop=1;jettySize=auto;html=1;exitX=0;exitY=0.5;exitDx=0;exitDy=0;entryX=1;entryY=0.5;entryDx=0;entryDy=0;" edge="1" parent="1" source="Qq1oJCVKSSWmtxD43wL0-173" target="Qq1oJCVKSSWmtxD43wL0-201">
          <mxGeometry relative="1" as="geometry" />
        </mxCell>
        <mxCell id="Qq1oJCVKSSWmtxD43wL0-173" value="UAC-Card" style="whiteSpace=wrap;html=1;align=center;verticalAlign=middle;spacingLeft=8;fontFamily=Helvetica;fontSize=24;labelBorderColor=none;labelBackgroundColor=default;fillColor=#ffe6cc;horizontal=1;strokeColor=#d79b00;" vertex="1" parent="1">
          <mxGeometry x="-1210" y="4610" width="200" height="280" as="geometry" />
        </mxCell>
        <mxCell id="Qq1oJCVKSSWmtxD43wL0-182" style="edgeStyle=orthogonalEdgeStyle;rounded=0;orthogonalLoop=1;jettySize=auto;html=1;exitX=1;exitY=0.25;exitDx=0;exitDy=0;entryX=0.009;entryY=0.348;entryDx=0;entryDy=0;entryPerimeter=0;" edge="1" parent="1" source="Qq1oJCVKSSWmtxD43wL0-181" target="Qq1oJCVKSSWmtxD43wL0-183">
          <mxGeometry relative="1" as="geometry">
            <mxPoint x="-1450" y="4631" as="targetPoint" />
          </mxGeometry>
        </mxCell>
        <mxCell id="Qq1oJCVKSSWmtxD43wL0-181" value="音频控制接口" style="rounded=0;whiteSpace=wrap;html=1;" vertex="1" parent="1">
          <mxGeometry x="-1600" y="4586" width="80" height="44" as="geometry" />
        </mxCell>
        <mxCell id="Qq1oJCVKSSWmtxD43wL0-219" style="edgeStyle=orthogonalEdgeStyle;rounded=0;orthogonalLoop=1;jettySize=auto;html=1;exitX=1;exitY=0.5;exitDx=0;exitDy=0;entryX=0;entryY=0.25;entryDx=0;entryDy=0;" edge="1" parent="1" source="Qq1oJCVKSSWmtxD43wL0-183" target="Qq1oJCVKSSWmtxD43wL0-173">
          <mxGeometry relative="1" as="geometry" />
        </mxCell>
        <mxCell id="Qq1oJCVKSSWmtxD43wL0-183" value="" style="rounded=0;whiteSpace=wrap;html=1;fillColor=#f8cecc;strokeColor=#b85450;" vertex="1" parent="1">
          <mxGeometry x="-1440" y="4516" width="90" height="160" as="geometry" />
        </mxCell>
        <mxCell id="Qq1oJCVKSSWmtxD43wL0-185" value="设置Mute" style="rounded=0;whiteSpace=wrap;html=1;fillColor=#d5e8d4;strokeColor=#82b366;" vertex="1" parent="1">
          <mxGeometry x="-1430" y="4546" width="70" height="30" as="geometry" />
        </mxCell>
        <mxCell id="Qq1oJCVKSSWmtxD43wL0-186" value="设置音量" style="rounded=0;whiteSpace=wrap;html=1;fillColor=#d5e8d4;strokeColor=#82b366;" vertex="1" parent="1">
          <mxGeometry x="-1430" y="4576" width="70" height="30" as="geometry" />
        </mxCell>
        <mxCell id="Qq1oJCVKSSWmtxD43wL0-187" value="获取Mute" style="rounded=0;whiteSpace=wrap;html=1;fillColor=#dae8fc;strokeColor=#6c8ebf;" vertex="1" parent="1">
          <mxGeometry x="-1430" y="4606" width="70" height="30" as="geometry" />
        </mxCell>
        <mxCell id="Qq1oJCVKSSWmtxD43wL0-188" value="获取音量" style="rounded=0;whiteSpace=wrap;html=1;fillColor=#dae8fc;strokeColor=#6c8ebf;" vertex="1" parent="1">
          <mxGeometry x="-1430" y="4636" width="70" height="30" as="geometry" />
        </mxCell>
        <mxCell id="Qq1oJCVKSSWmtxD43wL0-189" value="EP0" style="rounded=1;whiteSpace=wrap;html=1;fillColor=#f8cecc;strokeColor=none;" vertex="1" parent="1">
          <mxGeometry x="-1430" y="4526" width="70" height="10" as="geometry" />
        </mxCell>
        <mxCell id="Qq1oJCVKSSWmtxD43wL0-218" style="edgeStyle=orthogonalEdgeStyle;rounded=0;orthogonalLoop=1;jettySize=auto;html=1;exitX=1;exitY=0.5;exitDx=0;exitDy=0;entryX=0;entryY=0.5;entryDx=0;entryDy=0;" edge="1" parent="1" source="Qq1oJCVKSSWmtxD43wL0-192" target="Qq1oJCVKSSWmtxD43wL0-208">
          <mxGeometry relative="1" as="geometry" />
        </mxCell>
        <mxCell id="Qq1oJCVKSSWmtxD43wL0-192" value="音频输入流" style="rounded=0;whiteSpace=wrap;html=1;" vertex="1" parent="1">
          <mxGeometry x="-1600" y="4780" width="80" height="44" as="geometry" />
        </mxCell>
        <mxCell id="Qq1oJCVKSSWmtxD43wL0-195" value="音频输出流" style="rounded=0;whiteSpace=wrap;html=1;" vertex="1" parent="1">
          <mxGeometry x="-1600" y="4840" width="80" height="44" as="geometry" />
        </mxCell>
        <mxCell id="Qq1oJCVKSSWmtxD43wL0-197" style="edgeStyle=orthogonalEdgeStyle;rounded=0;orthogonalLoop=1;jettySize=auto;html=1;exitX=0;exitY=0.5;exitDx=0;exitDy=0;entryX=1;entryY=0.25;entryDx=0;entryDy=0;" edge="1" parent="1" source="Qq1oJCVKSSWmtxD43wL0-196" target="Qq1oJCVKSSWmtxD43wL0-171">
          <mxGeometry relative="1" as="geometry">
            <Array as="points">
              <mxPoint x="-1610" y="4712" />
              <mxPoint x="-1610" y="4690" />
            </Array>
          </mxGeometry>
        </mxCell>
        <mxCell id="Qq1oJCVKSSWmtxD43wL0-198" value="AC_INTF" style="edgeLabel;html=1;align=center;verticalAlign=middle;resizable=0;points=[];" vertex="1" connectable="0" parent="Qq1oJCVKSSWmtxD43wL0-197">
          <mxGeometry x="0.2221" relative="1" as="geometry">
            <mxPoint x="6" as="offset" />
          </mxGeometry>
        </mxCell>
        <mxCell id="Qq1oJCVKSSWmtxD43wL0-196" value="音频控制接口" style="rounded=0;whiteSpace=wrap;html=1;" vertex="1" parent="1">
          <mxGeometry x="-1600" y="4690" width="80" height="44" as="geometry" />
        </mxCell>
        <mxCell id="Qq1oJCVKSSWmtxD43wL0-200" style="edgeStyle=orthogonalEdgeStyle;rounded=0;orthogonalLoop=1;jettySize=auto;html=1;exitX=0;exitY=0.75;exitDx=0;exitDy=0;entryX=1.008;entryY=0.627;entryDx=0;entryDy=0;entryPerimeter=0;" edge="1" parent="1" source="Qq1oJCVKSSWmtxD43wL0-183" target="Qq1oJCVKSSWmtxD43wL0-181">
          <mxGeometry relative="1" as="geometry" />
        </mxCell>
        <mxCell id="Qq1oJCVKSSWmtxD43wL0-207" style="edgeStyle=orthogonalEdgeStyle;rounded=0;orthogonalLoop=1;jettySize=auto;html=1;exitX=0;exitY=0.5;exitDx=0;exitDy=0;entryX=1;entryY=0.5;entryDx=0;entryDy=0;" edge="1" parent="1" source="Qq1oJCVKSSWmtxD43wL0-201" target="Qq1oJCVKSSWmtxD43wL0-196">
          <mxGeometry relative="1" as="geometry">
            <Array as="points">
              <mxPoint x="-1490" y="4735" />
              <mxPoint x="-1490" y="4712" />
            </Array>
          </mxGeometry>
        </mxCell>
        <mxCell id="Qq1oJCVKSSWmtxD43wL0-201" value="" style="rounded=0;whiteSpace=wrap;html=1;fillColor=#f8cecc;strokeColor=#b85450;" vertex="1" parent="1">
          <mxGeometry x="-1440" y="4690" width="90" height="90" as="geometry" />
        </mxCell>
        <mxCell id="Qq1oJCVKSSWmtxD43wL0-204" value="上报Mute" style="rounded=0;whiteSpace=wrap;html=1;fillColor=#dae8fc;strokeColor=#6c8ebf;" vertex="1" parent="1">
          <mxGeometry x="-1430" y="4714" width="70" height="30" as="geometry" />
        </mxCell>
        <mxCell id="Qq1oJCVKSSWmtxD43wL0-205" value="上报音量" style="rounded=0;whiteSpace=wrap;html=1;fillColor=#dae8fc;strokeColor=#6c8ebf;" vertex="1" parent="1">
          <mxGeometry x="-1430" y="4744" width="70" height="30" as="geometry" />
        </mxCell>
        <mxCell id="Qq1oJCVKSSWmtxD43wL0-206" value="EP OUT" style="rounded=1;whiteSpace=wrap;html=1;fillColor=#f8cecc;strokeColor=none;" vertex="1" parent="1">
          <mxGeometry x="-1430" y="4700" width="70" height="10" as="geometry" />
        </mxCell>
        <mxCell id="Qq1oJCVKSSWmtxD43wL0-208" value="" style="rounded=0;whiteSpace=wrap;html=1;fillColor=#f8cecc;strokeColor=#b85450;" vertex="1" parent="1">
          <mxGeometry x="-1440" y="4790" width="90" height="60" as="geometry" />
        </mxCell>
        <mxCell id="Qq1oJCVKSSWmtxD43wL0-209" value="UAC Capture" style="rounded=0;whiteSpace=wrap;html=1;fillColor=#dae8fc;strokeColor=#6c8ebf;" vertex="1" parent="1">
          <mxGeometry x="-1430" y="4814" width="70" height="30" as="geometry" />
        </mxCell>
        <mxCell id="Qq1oJCVKSSWmtxD43wL0-211" value="EP IN" style="rounded=1;whiteSpace=wrap;html=1;fillColor=#f8cecc;strokeColor=none;" vertex="1" parent="1">
          <mxGeometry x="-1430" y="4800" width="70" height="10" as="geometry" />
        </mxCell>
        <mxCell id="Qq1oJCVKSSWmtxD43wL0-215" style="edgeStyle=orthogonalEdgeStyle;rounded=0;orthogonalLoop=1;jettySize=auto;html=1;exitX=0;exitY=0.5;exitDx=0;exitDy=0;" edge="1" parent="1" source="Qq1oJCVKSSWmtxD43wL0-212" target="Qq1oJCVKSSWmtxD43wL0-195">
          <mxGeometry relative="1" as="geometry" />
        </mxCell>
        <mxCell id="Qq1oJCVKSSWmtxD43wL0-212" value="" style="rounded=0;whiteSpace=wrap;html=1;fillColor=#f8cecc;strokeColor=#b85450;" vertex="1" parent="1">
          <mxGeometry x="-1440" y="4870" width="90" height="60" as="geometry" />
        </mxCell>
        <mxCell id="Qq1oJCVKSSWmtxD43wL0-213" value="UAC Playback" style="rounded=0;whiteSpace=wrap;html=1;fillColor=#dae8fc;strokeColor=#6c8ebf;" vertex="1" parent="1">
          <mxGeometry x="-1430" y="4894" width="70" height="30" as="geometry" />
        </mxCell>
        <mxCell id="Qq1oJCVKSSWmtxD43wL0-214" value="EP OUT" style="rounded=1;whiteSpace=wrap;html=1;fillColor=#f8cecc;strokeColor=none;" vertex="1" parent="1">
          <mxGeometry x="-1430" y="4880" width="70" height="10" as="geometry" />
        </mxCell>
        <mxCell id="Qq1oJCVKSSWmtxD43wL0-216" style="edgeStyle=orthogonalEdgeStyle;rounded=0;orthogonalLoop=1;jettySize=auto;html=1;exitX=0;exitY=0.5;exitDx=0;exitDy=0;entryX=1;entryY=0.917;entryDx=0;entryDy=0;entryPerimeter=0;" edge="1" parent="1" source="Qq1oJCVKSSWmtxD43wL0-195" target="Qq1oJCVKSSWmtxD43wL0-171">
          <mxGeometry relative="1" as="geometry">
            <Array as="points">
              <mxPoint x="-1740" y="4862" />
              <mxPoint x="-1740" y="4850" />
            </Array>
          </mxGeometry>
        </mxCell>
        <mxCell id="Qq1oJCVKSSWmtxD43wL0-217" value="AS_OUT_INTF" style="edgeLabel;html=1;align=center;verticalAlign=middle;resizable=0;points=[];" vertex="1" connectable="0" parent="Qq1oJCVKSSWmtxD43wL0-216">
          <mxGeometry x="-0.128" y="1" relative="1" as="geometry">
            <mxPoint as="offset" />
          </mxGeometry>
        </mxCell>
        <mxCell id="Qq1oJCVKSSWmtxD43wL0-223" style="edgeStyle=orthogonalEdgeStyle;rounded=0;orthogonalLoop=1;jettySize=auto;html=1;exitX=1;exitY=0.5;exitDx=0;exitDy=0;entryX=-0.004;entryY=0.719;entryDx=0;entryDy=0;entryPerimeter=0;" edge="1" parent="1" source="Qq1oJCVKSSWmtxD43wL0-208" target="Qq1oJCVKSSWmtxD43wL0-173">
          <mxGeometry relative="1" as="geometry">
            <Array as="points">
              <mxPoint x="-1350" y="4811" />
            </Array>
          </mxGeometry>
        </mxCell>
        <mxCell id="Qq1oJCVKSSWmtxD43wL0-224" style="edgeStyle=orthogonalEdgeStyle;rounded=0;orthogonalLoop=1;jettySize=auto;html=1;exitX=1;exitY=0.75;exitDx=0;exitDy=0;entryX=0.021;entryY=0.913;entryDx=0;entryDy=0;entryPerimeter=0;" edge="1" parent="1" source="Qq1oJCVKSSWmtxD43wL0-212" target="Qq1oJCVKSSWmtxD43wL0-173">
          <mxGeometry relative="1" as="geometry" />
        </mxCell>
        <mxCell id="Qq1oJCVKSSWmtxD43wL0-226" value="UAC FU" style="rounded=0;whiteSpace=wrap;html=1;strokeColor=none;fillColor=#f5f5f5;fontColor=#333333;" vertex="1" parent="1">
          <mxGeometry x="-1443" y="4496" width="93" height="20" as="geometry" />
        </mxCell>
        <mxCell id="Qq1oJCVKSSWmtxD43wL0-229" value="UAC 的数据流、控制端点&amp;nbsp; USB与Card关系如如下图：&lt;br&gt;1.PC端设置音量、静音、采样率等，通过EP0端口，使用完后释放，&lt;br&gt;2.PC端 主动读取音量等，也通过EP0、使用完后立马释放，&lt;br&gt;3.UAC端主动上报音量等，占用一个EP OUT端点，&lt;br&gt;4.UAC Capture 占用一个EP IN端点，&lt;br&gt;5.UAC Playback 占用一个EP OUT 端点。" style="text;html=1;align=left;verticalAlign=top;whiteSpace=wrap;rounded=0;fillColor=#fff2cc;strokeColor=none;" vertex="1" parent="1">
          <mxGeometry x="-2000" y="4510" width="390" height="94" as="geometry" />
        </mxCell>
      </root>
    </mxGraphModel>
  </diagram>
</mxfile>
